<?xml version="1.0" encoding="UTF-8"?>
<svg id="Layer_1" data-name="Layer 1" xmlns="http://www.w3.org/2000/svg" viewBox="0 0 128.5 128.5">
  <defs>
    <style>
      .cls-1 {
        fill: #8b93a8;
      }

      .cls-1, .cls-2, .cls-3, .cls-4, .cls-5, .cls-6, .cls-7, .cls-8, .cls-9 {
        stroke-width: 0px;
      }

      .cls-2 {
        fill: #e7e3e2;
      }

      .cls-3 {
        fill: #5d6372;
      }

      .cls-4 {
        fill: #1b1211;
      }

      .cls-5 {
        fill: #794a3b;
      }

      .cls-6 {
        fill: #6b4a43;
      }

      .cls-7 {
        fill: #b9acae;
      }

      .cls-8 {
        fill: #89757b;
      }

      .cls-9 {
        fill: #c4bbbf;
      }
    </style>
  </defs>
  <rect class="cls-9" x="120.26" y="120.25" width="4" height="4"/>
  <rect class="cls-9" x="116.26" y="120.25" width="4" height="4"/>
  <rect class="cls-9" x="116.26" y="116.25" width="4" height="4"/>
  <rect class="cls-1" x="112.26" y="120.25" width="4" height="4"/>
  <rect class="cls-9" x="112.26" y="116.25" width="4" height="4"/>
  <rect class="cls-1" x="108.26" y="120.25" width="4" height="4"/>
  <rect class="cls-9" x="108.26" y="116.25" width="4" height="4"/>
  <rect class="cls-1" x="104.26" y="120.25" width="4" height="4"/>
  <rect class="cls-1" x="104.26" y="116.25" width="4" height="4"/>
  <rect class="cls-9" x="104.26" y="112.25" width="4" height="4"/>
  <rect class="cls-1" x="100.26" y="116.25" width="4" height="4"/>
  <rect class="cls-3" x="100.26" y="112.25" width="4" height="4"/>
  <rect class="cls-9" x="100.26" y="56.25" width="4" height="4"/>
  <rect class="cls-9" x="100.26" y="52.25" width="4" height="4"/>
  <rect class="cls-9" x="100.26" y="48.25" width="4" height="4"/>
  <rect class="cls-9" x="100.26" y="44.25" width="4" height="4"/>
  <rect class="cls-9" x="100.26" y="40.25" width="4" height="4"/>
  <rect class="cls-9" x="100.26" y="36.25" width="4" height="4"/>
  <rect class="cls-1" x="96.26" y="116.25" width="4" height="4"/>
  <rect class="cls-1" x="96.26" y="112.25" width="4" height="4"/>
  <rect class="cls-3" x="96.26" y="108.25" width="4" height="4"/>
  <rect class="cls-1" x="96.26" y="96.25" width="4" height="4"/>
  <rect class="cls-1" x="96.26" y="92.25" width="4" height="4"/>
  <rect class="cls-1" x="96.26" y="88.25" width="4" height="4"/>
  <rect class="cls-1" x="96.26" y="84.25" width="4" height="4"/>
  <rect class="cls-1" x="96.26" y="80.25" width="4" height="4"/>
  <rect class="cls-1" x="96.26" y="76.25" width="4" height="4"/>
  <rect class="cls-9" x="96.26" y="72.25" width="4" height="4"/>
  <rect class="cls-9" x="96.26" y="68.25" width="4" height="4"/>
  <rect class="cls-9" x="96.26" y="64.25" width="4" height="4"/>
  <rect class="cls-2" x="96.26" y="60.25" width="4" height="4"/>
  <rect class="cls-2" x="96.26" y="56.25" width="4" height="4"/>
  <rect class="cls-2" x="96.26" y="52.25" width="4" height="4"/>
  <rect class="cls-2" x="96.26" y="48.25" width="4" height="4"/>
  <rect class="cls-2" x="96.26" y="44.25" width="4" height="4"/>
  <rect class="cls-2" x="96.26" y="40.25" width="4" height="4"/>
  <rect class="cls-2" x="96.26" y="36.25" width="4" height="4"/>
  <rect class="cls-9" x="96.26" y="32.25" width="4" height="4"/>
  <rect class="cls-9" x="96.26" y="28.25" width="4" height="4"/>
  <rect class="cls-3" x="92.26" y="112.25" width="4" height="4"/>
  <rect class="cls-3" x="92.26" y="108.25" width="4" height="4"/>
  <rect class="cls-1" x="92.26" y="104.25" width="4" height="4"/>
  <rect class="cls-1" x="92.26" y="100.25" width="4" height="4"/>
  <rect class="cls-1" x="92.26" y="96.25" width="4" height="4"/>
  <rect class="cls-1" x="92.26" y="92.25" width="4" height="4"/>
  <rect class="cls-1" x="92.26" y="88.25" width="4" height="4"/>
  <rect class="cls-1" x="92.26" y="84.25" width="4" height="4"/>
  <rect class="cls-1" x="92.26" y="80.25" width="4" height="4"/>
  <rect class="cls-9" x="92.26" y="76.25" width="4" height="4"/>
  <rect class="cls-9" x="92.26" y="72.25" width="4" height="4"/>
  <rect class="cls-9" x="92.26" y="68.25" width="4" height="4"/>
  <rect class="cls-9" x="92.26" y="64.25" width="4" height="4"/>
  <rect class="cls-9" x="92.26" y="60.25" width="4" height="4"/>
  <rect class="cls-2" x="92.26" y="56.25" width="4" height="4"/>
  <rect class="cls-2" x="92.26" y="52.25" width="4" height="4"/>
  <rect class="cls-2" x="92.26" y="48.25" width="4" height="4"/>
  <rect class="cls-2" x="92.26" y="44.25" width="4" height="4"/>
  <rect class="cls-2" x="92.26" y="40.25" width="4" height="4"/>
  <rect class="cls-2" x="92.26" y="36.25" width="4" height="4"/>
  <rect class="cls-9" x="92.26" y="32.25" width="4" height="4"/>
  <rect class="cls-9" x="92.26" y="28.25" width="4" height="4"/>
  <rect class="cls-9" x="92.26" y="24.25" width="4" height="4"/>
  <rect class="cls-3" x="88.26" y="112.25" width="4" height="4"/>
  <rect class="cls-3" x="88.26" y="108.25" width="4" height="4"/>
  <rect class="cls-4" x="88.26" y="104.25" width="4" height="4"/>
  <rect class="cls-4" x="88.26" y="100.25" width="4" height="4"/>
  <rect class="cls-4" x="88.26" y="96.25" width="4" height="4"/>
  <rect class="cls-1" x="88.26" y="92.25" width="4" height="4"/>
  <rect class="cls-1" x="88.26" y="88.25" width="4" height="4"/>
  <rect class="cls-1" x="88.26" y="84.25" width="4" height="4"/>
  <rect class="cls-1" x="88.26" y="80.25" width="4" height="4"/>
  <rect class="cls-9" x="88.26" y="76.25" width="4" height="4"/>
  <rect class="cls-9" x="88.26" y="72.25" width="4" height="4"/>
  <rect class="cls-9" x="88.26" y="68.25" width="4" height="4"/>
  <rect class="cls-9" x="88.26" y="64.25" width="4" height="4"/>
  <rect class="cls-9" x="88.26" y="60.25" width="4" height="4"/>
  <rect class="cls-9" x="88.26" y="56.25" width="4" height="4"/>
  <rect class="cls-9" x="88.26" y="52.25" width="4" height="4"/>
  <rect class="cls-9" x="88.26" y="48.25" width="4" height="4"/>
  <rect class="cls-9" x="88.26" y="44.25" width="4" height="4"/>
  <rect class="cls-2" x="88.26" y="40.25" width="4" height="4"/>
  <rect class="cls-2" x="88.26" y="36.25" width="4" height="4"/>
  <rect class="cls-9" x="88.26" y="32.25" width="4" height="4"/>
  <rect class="cls-9" x="88.26" y="28.25" width="4" height="4"/>
  <rect class="cls-9" x="88.26" y="24.25" width="4" height="4"/>
  <rect class="cls-1" x="88.26" y="20.25" width="4" height="4"/>
  <rect class="cls-6" x="88.26" y="12.25" width="4" height="4"/>
  <rect class="cls-6" x="88.26" y="8.25" width="4" height="4"/>
  <rect class="cls-6" x="88.26" y="4.25" width="4" height="4"/>
  <rect class="cls-9" x="84.26" y="124.25" width="4" height="4"/>
  <rect class="cls-3" x="84.26" y="112.25" width="4" height="4"/>
  <rect class="cls-4" x="84.26" y="108.25" width="4" height="4"/>
  <rect class="cls-4" x="84.26" y="104.25" width="4" height="4"/>
  <rect class="cls-4" x="84.26" y="100.25" width="4" height="4"/>
  <rect class="cls-4" x="84.26" y="96.25" width="4" height="4"/>
  <rect class="cls-4" x="84.26" y="92.25" width="4" height="4"/>
  <rect class="cls-4" x="84.26" y="88.25" width="4" height="4"/>
  <rect class="cls-8" x="84.26" y="84.25" width="4" height="4"/>
  <rect class="cls-8" x="84.26" y="80.25" width="4" height="4"/>
  <rect class="cls-6" x="84.26" y="76.25" width="4" height="4"/>
  <rect class="cls-6" x="84.26" y="72.25" width="4" height="4"/>
  <rect class="cls-6" x="84.26" y="68.25" width="4" height="4"/>
  <rect class="cls-9" x="84.26" y="64.25" width="4" height="4"/>
  <rect class="cls-9" x="84.26" y="60.25" width="4" height="4"/>
  <rect class="cls-9" x="84.26" y="56.25" width="4" height="4"/>
  <rect class="cls-9" x="84.26" y="52.25" width="4" height="4"/>
  <rect class="cls-9" x="84.26" y="48.25" width="4" height="4"/>
  <rect class="cls-8" x="84.26" y="44.25" width="4" height="4"/>
  <rect class="cls-9" x="84.26" y="40.25" width="4" height="4"/>
  <rect class="cls-8" x="84.26" y="36.25" width="4" height="4"/>
  <rect class="cls-8" x="84.26" y="32.25" width="4" height="4"/>
  <rect class="cls-8" x="84.26" y="28.25" width="4" height="4"/>
  <rect class="cls-8" x="84.26" y="24.25" width="4" height="4"/>
  <rect class="cls-1" x="84.26" y="20.25" width="4" height="4"/>
  <rect class="cls-6" x="84.26" y="16.25" width="4" height="4"/>
  <rect class="cls-6" x="84.26" y="12.25" width="4" height="4"/>
  <rect class="cls-6" x="84.26" y="8.25" width="4" height="4"/>
  <rect class="cls-9" x="80.26" y="124.25" width="4" height="4"/>
  <rect class="cls-9" x="80.26" y="120.25" width="4" height="4"/>
  <rect class="cls-4" x="80.26" y="108.25" width="4" height="4"/>
  <rect class="cls-4" x="80.26" y="104.25" width="4" height="4"/>
  <rect class="cls-4" x="80.26" y="100.25" width="4" height="4"/>
  <rect class="cls-4" x="80.26" y="96.25" width="4" height="4"/>
  <rect class="cls-9" x="80.26" y="92.25" width="4" height="4"/>
  <rect class="cls-8" x="80.26" y="88.25" width="4" height="4"/>
  <rect class="cls-8" x="80.26" y="84.25" width="4" height="4"/>
  <rect class="cls-8" x="80.26" y="80.25" width="4" height="4"/>
  <rect class="cls-8" x="80.26" y="76.25" width="4" height="4"/>
  <rect class="cls-6" x="80.26" y="72.25" width="4" height="4"/>
  <rect class="cls-6" x="80.26" y="68.25" width="4" height="4"/>
  <rect class="cls-4" x="80.26" y="64.25" width="4" height="4"/>
  <rect class="cls-9" x="80.26" y="60.25" width="4" height="4"/>
  <rect class="cls-9" x="80.26" y="56.25" width="4" height="4"/>
  <rect class="cls-4" x="80.26" y="52.25" width="4" height="4"/>
  <rect class="cls-4" x="80.26" y="48.25" width="4" height="4"/>
  <rect class="cls-8" x="80.26" y="44.25" width="4" height="4"/>
  <rect class="cls-8" x="80.26" y="40.25" width="4" height="4"/>
  <rect class="cls-8" x="80.26" y="36.25" width="4" height="4"/>
  <rect class="cls-4" x="80.26" y="32.25" width="4" height="4"/>
  <rect class="cls-8" x="80.26" y="28.25" width="4" height="4"/>
  <rect class="cls-2" x="80.26" y="24.25" width="4" height="4"/>
  <rect class="cls-2" x="80.26" y="20.25" width="4" height="4"/>
  <rect class="cls-8" x="80.26" y="16.25" width="4" height="4"/>
  <rect class="cls-8" x="80.26" y="12.25" width="4" height="4"/>
  <rect class="cls-8" x="80.26" y="8.25" width="4" height="4"/>
  <rect class="cls-9" x="76.26" y="124.25" width="4" height="4"/>
  <rect class="cls-8" x="76.26" y="120.25" width="4" height="4"/>
  <rect class="cls-9" x="76.26" y="116.25" width="4" height="4"/>
  <rect class="cls-4" x="76.26" y="112.25" width="4" height="4"/>
  <rect class="cls-4" x="76.26" y="108.25" width="4" height="4"/>
  <rect class="cls-4" x="76.26" y="104.25" width="4" height="4"/>
  <rect class="cls-4" x="76.26" y="100.25" width="4" height="4"/>
  <rect class="cls-9" x="76.26" y="96.25" width="4" height="4"/>
  <rect class="cls-9" x="76.26" y="92.25" width="4" height="4"/>
  <rect class="cls-8" x="76.26" y="88.25" width="4" height="4"/>
  <rect class="cls-8" x="76.26" y="84.25" width="4" height="4"/>
  <rect class="cls-8" x="76.26" y="80.25" width="4" height="4"/>
  <rect class="cls-6" x="76.26" y="76.25" width="4" height="4"/>
  <rect class="cls-6" x="76.26" y="72.25" width="4" height="4"/>
  <rect class="cls-4" x="76.26" y="68.25" width="4" height="4"/>
  <rect class="cls-4" x="76.26" y="64.25" width="4" height="4"/>
  <rect class="cls-4" x="76.26" y="60.25" width="4" height="4"/>
  <rect class="cls-4" x="76.26" y="56.25" width="4" height="4"/>
  <rect class="cls-4" x="76.26" y="52.25" width="4" height="4"/>
  <rect class="cls-8" x="76.26" y="48.25" width="4" height="4"/>
  <rect class="cls-8" x="76.26" y="44.25" width="4" height="4"/>
  <rect class="cls-9" x="76.26" y="40.25" width="4" height="4"/>
  <rect class="cls-9" x="76.26" y="36.25" width="4" height="4"/>
  <rect class="cls-9" x="76.26" y="32.25" width="4" height="4"/>
  <rect class="cls-2" x="76.26" y="28.25" width="4" height="4"/>
  <rect class="cls-2" x="76.26" y="24.25" width="4" height="4"/>
  <rect class="cls-2" x="76.26" y="20.25" width="4" height="4"/>
  <rect class="cls-8" x="76.26" y="16.25" width="4" height="4"/>
  <rect class="cls-8" x="76.26" y="12.25" width="4" height="4"/>
  <rect class="cls-9" x="72.26" y="124.25" width="4" height="4"/>
  <rect class="cls-8" x="72.26" y="120.25" width="4" height="4"/>
  <rect class="cls-8" x="72.26" y="116.25" width="4" height="4"/>
  <rect class="cls-4" x="72.26" y="112.25" width="4" height="4"/>
  <rect class="cls-4" x="72.26" y="108.25" width="4" height="4"/>
  <rect class="cls-4" x="72.26" y="104.25" width="4" height="4"/>
  <rect class="cls-9" x="72.26" y="100.25" width="4" height="4"/>
  <rect class="cls-9" x="72.26" y="96.25" width="4" height="4"/>
  <rect class="cls-9" x="72.26" y="92.25" width="4" height="4"/>
  <rect class="cls-9" x="72.26" y="88.25" width="4" height="4"/>
  <rect class="cls-8" x="72.26" y="84.25" width="4" height="4"/>
  <rect class="cls-8" x="72.26" y="80.25" width="4" height="4"/>
  <rect class="cls-6" x="72.26" y="76.25" width="4" height="4"/>
  <rect class="cls-4" x="72.26" y="72.25" width="4" height="4"/>
  <rect class="cls-4" x="72.26" y="68.25" width="4" height="4"/>
  <rect class="cls-4" x="72.26" y="64.25" width="4" height="4"/>
  <rect class="cls-4" x="72.26" y="60.25" width="4" height="4"/>
  <rect class="cls-4" x="72.26" y="56.25" width="4" height="4"/>
  <rect class="cls-4" x="72.26" y="52.25" width="4" height="4"/>
  <rect class="cls-8" x="72.26" y="48.25" width="4" height="4"/>
  <rect class="cls-9" x="72.26" y="44.25" width="4" height="4"/>
  <rect class="cls-9" x="72.26" y="40.25" width="4" height="4"/>
  <rect class="cls-2" x="72.26" y="36.25" width="4" height="4"/>
  <rect class="cls-2" x="72.26" y="32.25" width="4" height="4"/>
  <rect class="cls-2" x="72.26" y="28.25" width="4" height="4"/>
  <rect class="cls-2" x="72.26" y="24.25" width="4" height="4"/>
  <rect class="cls-2" x="72.26" y="20.25" width="4" height="4"/>
  <rect class="cls-8" x="72.26" y="16.25" width="4" height="4"/>
  <rect class="cls-1" x="72.26" y="12.25" width="4" height="4"/>
  <rect class="cls-8" x="68.26" y="124.25" width="4" height="4"/>
  <rect class="cls-8" x="68.26" y="120.25" width="4" height="4"/>
  <rect class="cls-8" x="68.26" y="116.25" width="4" height="4"/>
  <rect class="cls-6" x="68.26" y="112.25" width="4" height="4"/>
  <rect class="cls-4" x="68.26" y="108.25" width="4" height="4"/>
  <rect class="cls-4" x="68.26" y="104.25" width="4" height="4"/>
  <rect class="cls-4" x="68.26" y="100.25" width="4" height="4"/>
  <rect class="cls-4" x="68.26" y="96.25" width="4" height="4"/>
  <rect class="cls-4" x="68.26" y="92.25" width="4" height="4"/>
  <rect class="cls-4" x="68.26" y="88.25" width="4" height="4"/>
  <rect class="cls-4" x="68.26" y="84.25" width="4" height="4"/>
  <rect class="cls-4" x="68.26" y="80.25" width="4" height="4"/>
  <rect class="cls-4" x="68.26" y="76.25" width="4" height="4"/>
  <rect class="cls-4" x="68.26" y="72.25" width="4" height="4"/>
  <rect class="cls-4" x="68.26" y="68.25" width="4" height="4"/>
  <rect class="cls-4" x="68.26" y="64.25" width="4" height="4"/>
  <rect class="cls-4" x="68.26" y="60.25" width="4" height="4"/>
  <rect class="cls-5" x="68.26" y="56.25" width="4" height="4"/>
  <rect class="cls-5" x="68.26" y="52.25" width="4" height="4"/>
  <rect class="cls-9" x="68.26" y="48.25" width="4" height="4"/>
  <rect class="cls-2" x="68.26" y="44.25" width="4" height="4"/>
  <rect class="cls-2" x="68.26" y="40.25" width="4" height="4"/>
  <rect class="cls-2" x="68.26" y="36.25" width="4" height="4"/>
  <rect class="cls-2" x="68.26" y="32.25" width="4" height="4"/>
  <rect class="cls-2" x="68.26" y="28.25" width="4" height="4"/>
  <rect class="cls-2" x="68.26" y="24.25" width="4" height="4"/>
  <rect class="cls-2" x="68.26" y="20.25" width="4" height="4"/>
  <rect class="cls-8" x="68.26" y="16.25" width="4" height="4"/>
  <rect class="cls-1" x="68.26" y="12.25" width="4" height="4"/>
  <rect class="cls-1" x="68.26" y="8.25" width="4" height="4"/>
  <rect class="cls-8" x="64.26" y="124.25" width="4" height="4"/>
  <rect class="cls-8" x="64.26" y="120.25" width="4" height="4"/>
  <rect class="cls-6" x="64.26" y="116.25" width="4" height="4"/>
  <rect class="cls-6" x="64.26" y="112.25" width="4" height="4"/>
  <rect class="cls-4" x="64.26" y="108.25" width="4" height="4"/>
  <rect class="cls-4" x="64.26" y="104.25" width="4" height="4"/>
  <rect class="cls-4" x="64.26" y="100.25" width="4" height="4"/>
  <rect class="cls-4" x="64.26" y="96.25" width="4" height="4"/>
  <rect class="cls-9" x="64.26" y="92.25" width="4" height="4"/>
  <rect class="cls-9" x="64.26" y="88.25" width="4" height="4"/>
  <rect class="cls-9" x="64.26" y="84.25" width="4" height="4"/>
  <rect class="cls-8" x="64.26" y="80.25" width="4" height="4"/>
  <rect class="cls-6" x="64.26" y="76.25" width="4" height="4"/>
  <rect class="cls-6" x="64.26" y="72.25" width="4" height="4"/>
  <rect class="cls-4" x="64.26" y="68.25" width="4" height="4"/>
  <rect class="cls-4" x="64.26" y="64.25" width="4" height="4"/>
  <rect class="cls-4" x="64.26" y="60.25" width="4" height="4"/>
  <rect class="cls-5" x="64.26" y="56.25" width="4" height="4"/>
  <rect class="cls-8" x="64.26" y="52.25" width="4" height="4"/>
  <rect class="cls-9" x="64.26" y="48.25" width="4" height="4"/>
  <rect class="cls-2" x="64.26" y="44.25" width="4" height="4"/>
  <rect class="cls-2" x="64.26" y="40.25" width="4" height="4"/>
  <rect class="cls-2" x="64.26" y="36.25" width="4" height="4"/>
  <rect class="cls-2" x="64.26" y="32.25" width="4" height="4"/>
  <rect class="cls-2" x="64.26" y="28.25" width="4" height="4"/>
  <rect class="cls-2" x="64.26" y="24.25" width="4" height="4"/>
  <rect class="cls-2" x="64.26" y="20.25" width="4" height="4"/>
  <rect class="cls-8" x="64.26" y="16.25" width="4" height="4"/>
  <rect class="cls-8" x="64.26" y="12.25" width="4" height="4"/>
  <rect class="cls-8" x="64.26" y="8.25" width="4" height="4"/>
  <rect class="cls-6" x="60.26" y="124.25" width="4" height="4"/>
  <rect class="cls-6" x="60.26" y="120.25" width="4" height="4"/>
  <rect class="cls-6" x="60.26" y="116.25" width="4" height="4"/>
  <rect class="cls-6" x="60.26" y="112.25" width="4" height="4"/>
  <rect class="cls-4" x="60.26" y="108.25" width="4" height="4"/>
  <rect class="cls-4" x="60.26" y="104.25" width="4" height="4"/>
  <rect class="cls-4" x="60.26" y="100.25" width="4" height="4"/>
  <rect class="cls-4" x="60.26" y="96.25" width="4" height="4"/>
  <rect class="cls-4" x="60.26" y="92.25" width="4" height="4"/>
  <rect class="cls-9" x="60.26" y="88.25" width="4" height="4"/>
  <rect class="cls-9" x="60.26" y="84.25" width="4" height="4"/>
  <rect class="cls-8" x="60.26" y="80.25" width="4" height="4"/>
  <rect class="cls-8" x="60.26" y="76.25" width="4" height="4"/>
  <rect class="cls-6" x="60.26" y="72.25" width="4" height="4"/>
  <rect class="cls-6" x="60.26" y="68.25" width="4" height="4"/>
  <rect class="cls-4" x="60.26" y="64.25" width="4" height="4"/>
  <rect class="cls-4" x="60.26" y="60.25" width="4" height="4"/>
  <rect class="cls-5" x="60.26" y="56.25" width="4" height="4"/>
  <rect class="cls-5" x="60.26" y="52.25" width="4" height="4"/>
  <rect class="cls-9" x="60.26" y="48.25" width="4" height="4"/>
  <rect class="cls-9" x="60.26" y="44.25" width="4" height="4"/>
  <rect class="cls-9" x="60.26" y="40.25" width="4" height="4"/>
  <rect class="cls-9" x="60.26" y="36.25" width="4" height="4"/>
  <rect class="cls-9" x="60.26" y="32.25" width="4" height="4"/>
  <rect class="cls-9" x="60.26" y="28.25" width="4" height="4"/>
  <rect class="cls-9" x="60.26" y="24.25" width="4" height="4"/>
  <rect class="cls-1" x="60.26" y="20.25" width="4" height="4"/>
  <rect class="cls-6" x="60.26" y="16.25" width="4" height="4"/>
  <rect class="cls-8" x="60.26" y="12.25" width="4" height="4"/>
  <rect class="cls-8" x="60.26" y="8.25" width="4" height="4"/>
  <rect class="cls-4" x="56.26" y="120.25" width="4" height="4"/>
  <rect class="cls-4" x="56.26" y="116.25" width="4" height="4"/>
  <rect class="cls-4" x="56.26" y="112.25" width="4" height="4"/>
  <rect class="cls-4" x="56.26" y="108.25" width="4" height="4"/>
  <rect class="cls-4" x="56.26" y="104.25" width="4" height="4"/>
  <rect class="cls-4" x="56.26" y="100.25" width="4" height="4"/>
  <rect class="cls-4" x="56.26" y="96.25" width="4" height="4"/>
  <rect class="cls-4" x="56.26" y="92.25" width="4" height="4"/>
  <rect class="cls-4" x="56.26" y="88.25" width="4" height="4"/>
  <rect class="cls-4" x="56.26" y="84.25" width="4" height="4"/>
  <rect class="cls-8" x="56.26" y="80.25" width="4" height="4"/>
  <rect class="cls-8" x="56.26" y="76.25" width="4" height="4"/>
  <rect class="cls-6" x="56.26" y="72.25" width="4" height="4"/>
  <rect class="cls-6" x="56.26" y="68.25" width="4" height="4"/>
  <rect class="cls-4" x="56.26" y="64.25" width="4" height="4"/>
  <rect class="cls-7" x="56.26" y="60.25" width="4" height="4"/>
  <rect class="cls-7" x="56.26" y="56.25" width="4" height="4"/>
  <rect class="cls-7" x="56.26" y="52.25" width="4" height="4"/>
  <rect class="cls-8" x="56.26" y="48.25" width="4" height="4"/>
  <rect class="cls-8" x="56.26" y="44.25" width="4" height="4"/>
  <rect class="cls-8" x="56.26" y="40.25" width="4" height="4"/>
  <rect class="cls-8" x="56.26" y="36.25" width="4" height="4"/>
  <rect class="cls-4" x="56.26" y="32.25" width="4" height="4"/>
  <rect class="cls-8" x="56.26" y="28.25" width="4" height="4"/>
  <rect class="cls-8" x="56.26" y="24.25" width="4" height="4"/>
  <rect class="cls-1" x="56.26" y="20.25" width="4" height="4"/>
  <rect class="cls-6" x="56.26" y="16.25" width="4" height="4"/>
  <rect class="cls-6" x="56.26" y="12.25" width="4" height="4"/>
  <rect class="cls-6" x="56.26" y="8.25" width="4" height="4"/>
  <rect class="cls-6" x="56.26" y="4.25" width="4" height="4"/>
  <rect class="cls-6" x="52.26" y=".25" width="4" height="4"/>
  <rect class="cls-4" x="52.26" y="120.25" width="4" height="4"/>
  <rect class="cls-4" x="52.26" y="116.25" width="4" height="4"/>
  <rect class="cls-4" x="52.26" y="112.25" width="4" height="4"/>
  <rect class="cls-4" x="52.26" y="108.25" width="4" height="4"/>
  <rect class="cls-4" x="52.26" y="104.25" width="4" height="4"/>
  <rect class="cls-4" x="52.26" y="100.25" width="4" height="4"/>
  <rect class="cls-4" x="52.26" y="96.25" width="4" height="4"/>
  <rect class="cls-4" x="52.26" y="92.25" width="4" height="4"/>
  <rect class="cls-4" x="52.26" y="88.25" width="4" height="4"/>
  <rect class="cls-4" x="52.26" y="84.25" width="4" height="4"/>
  <rect class="cls-4" x="52.26" y="80.25" width="4" height="4"/>
  <rect class="cls-8" x="52.26" y="76.25" width="4" height="4"/>
  <rect class="cls-6" x="52.26" y="72.25" width="4" height="4"/>
  <rect class="cls-6" x="52.26" y="68.25" width="4" height="4"/>
  <rect class="cls-7" x="52.26" y="64.25" width="4" height="4"/>
  <rect class="cls-7" x="52.26" y="60.25" width="4" height="4"/>
  <rect class="cls-7" x="52.26" y="56.25" width="4" height="4"/>
  <rect class="cls-7" x="52.26" y="52.25" width="4" height="4"/>
  <rect class="cls-7" x="52.26" y="48.25" width="4" height="4"/>
  <rect class="cls-7" x="52.26" y="44.25" width="4" height="4"/>
  <rect class="cls-7" x="52.26" y="40.25" width="4" height="4"/>
  <rect class="cls-1" x="52.26" y="36.25" width="4" height="4"/>
  <rect class="cls-1" x="52.26" y="32.25" width="4" height="4"/>
  <rect class="cls-1" x="52.26" y="28.25" width="4" height="4"/>
  <rect class="cls-1" x="52.26" y="24.25" width="4" height="4"/>
  <rect class="cls-1" x="52.26" y="20.25" width="4" height="4"/>
  <rect class="cls-1" x="52.26" y="16.25" width="4" height="4"/>
  <rect class="cls-1" x="52.26" y="12.25" width="4" height="4"/>
  <rect class="cls-6" x="52.26" y="8.25" width="4" height="4"/>
  <rect class="cls-6" x="52.26" y="4.25" width="4" height="4"/>
  <rect class="cls-6" x="48.26" y="124.25" width="4" height="4"/>
  <rect class="cls-6" x="48.26" y="120.25" width="4" height="4"/>
  <rect class="cls-6" x="48.26" y="116.25" width="4" height="4"/>
  <rect class="cls-6" x="48.26" y="112.25" width="4" height="4"/>
  <rect class="cls-4" x="48.26" y="108.25" width="4" height="4"/>
  <rect class="cls-4" x="48.26" y="104.25" width="4" height="4"/>
  <rect class="cls-4" x="48.26" y="100.25" width="4" height="4"/>
  <rect class="cls-4" x="48.26" y="96.25" width="4" height="4"/>
  <rect class="cls-4" x="48.26" y="92.25" width="4" height="4"/>
  <rect class="cls-4" x="48.26" y="88.25" width="4" height="4"/>
  <rect class="cls-4" x="48.26" y="84.25" width="4" height="4"/>
  <rect class="cls-4" x="48.26" y="80.25" width="4" height="4"/>
  <rect class="cls-4" x="48.26" y="76.25" width="4" height="4"/>
  <rect class="cls-7" x="48.26" y="72.25" width="4" height="4"/>
  <rect class="cls-7" x="48.26" y="68.25" width="4" height="4"/>
  <rect class="cls-7" x="48.26" y="64.25" width="4" height="4"/>
  <rect class="cls-7" x="48.26" y="60.25" width="4" height="4"/>
  <rect class="cls-7" x="48.26" y="56.25" width="4" height="4"/>
  <rect class="cls-7" x="48.26" y="52.25" width="4" height="4"/>
  <rect class="cls-7" x="48.26" y="48.25" width="4" height="4"/>
  <rect class="cls-7" x="48.26" y="44.25" width="4" height="4"/>
  <rect class="cls-7" x="48.26" y="40.25" width="4" height="4"/>
  <rect class="cls-1" x="48.26" y="36.25" width="4" height="4"/>
  <rect class="cls-1" x="48.26" y="32.25" width="4" height="4"/>
  <rect class="cls-1" x="48.26" y="28.25" width="4" height="4"/>
  <rect class="cls-1" x="48.26" y="24.25" width="4" height="4"/>
  <rect class="cls-1" x="48.26" y="20.25" width="4" height="4"/>
  <rect class="cls-1" x="48.26" y="16.25" width="4" height="4"/>
  <rect class="cls-1" x="48.26" y="12.25" width="4" height="4"/>
  <rect class="cls-8" x="44.26" y="124.25" width="4" height="4"/>
  <rect class="cls-8" x="44.26" y="120.25" width="4" height="4"/>
  <rect class="cls-6" x="44.26" y="116.25" width="4" height="4"/>
  <rect class="cls-6" x="44.26" y="112.25" width="4" height="4"/>
  <rect class="cls-4" x="44.26" y="108.25" width="4" height="4"/>
  <rect class="cls-4" x="44.26" y="104.25" width="4" height="4"/>
  <rect class="cls-4" x="44.26" y="100.25" width="4" height="4"/>
  <rect class="cls-4" x="44.26" y="96.25" width="4" height="4"/>
  <rect class="cls-4" x="44.26" y="92.25" width="4" height="4"/>
  <rect class="cls-4" x="44.26" y="88.25" width="4" height="4"/>
  <rect class="cls-4" x="44.26" y="84.25" width="4" height="4"/>
  <rect class="cls-4" x="44.26" y="80.25" width="4" height="4"/>
  <rect class="cls-7" x="44.26" y="76.25" width="4" height="4"/>
  <rect class="cls-7" x="44.26" y="72.25" width="4" height="4"/>
  <rect class="cls-7" x="44.26" y="68.25" width="4" height="4"/>
  <rect class="cls-7" x="44.26" y="64.25" width="4" height="4"/>
  <rect class="cls-7" x="44.26" y="60.25" width="4" height="4"/>
  <rect class="cls-7" x="44.26" y="56.25" width="4" height="4"/>
  <rect class="cls-7" x="44.26" y="52.25" width="4" height="4"/>
  <rect class="cls-7" x="44.26" y="48.25" width="4" height="4"/>
  <rect class="cls-7" x="44.26" y="44.25" width="4" height="4"/>
  <rect class="cls-7" x="44.26" y="40.25" width="4" height="4"/>
  <rect class="cls-1" x="44.26" y="36.25" width="4" height="4"/>
  <rect class="cls-1" x="44.26" y="32.25" width="4" height="4"/>
  <rect class="cls-1" x="44.26" y="28.25" width="4" height="4"/>
  <rect class="cls-1" x="44.26" y="24.25" width="4" height="4"/>
  <rect class="cls-1" x="44.26" y="20.25" width="4" height="4"/>
  <rect class="cls-1" x="44.26" y="16.25" width="4" height="4"/>
  <rect class="cls-8" x="40.26" y="124.25" width="4" height="4"/>
  <rect class="cls-8" x="40.26" y="120.25" width="4" height="4"/>
  <rect class="cls-8" x="40.26" y="116.25" width="4" height="4"/>
  <rect class="cls-6" x="40.26" y="112.25" width="4" height="4"/>
  <rect class="cls-4" x="40.26" y="108.25" width="4" height="4"/>
  <rect class="cls-4" x="40.26" y="104.25" width="4" height="4"/>
  <rect class="cls-4" x="40.26" y="100.25" width="4" height="4"/>
  <rect class="cls-4" x="40.26" y="96.25" width="4" height="4"/>
  <rect class="cls-4" x="40.26" y="92.25" width="4" height="4"/>
  <rect class="cls-4" x="40.26" y="88.25" width="4" height="4"/>
  <rect class="cls-4" x="40.26" y="84.25" width="4" height="4"/>
  <rect class="cls-7" x="40.26" y="80.25" width="4" height="4"/>
  <rect class="cls-7" x="40.26" y="76.25" width="4" height="4"/>
  <rect class="cls-7" x="40.26" y="72.25" width="4" height="4"/>
  <rect class="cls-7" x="40.26" y="68.25" width="4" height="4"/>
  <rect class="cls-7" x="40.26" y="64.25" width="4" height="4"/>
  <rect class="cls-7" x="40.26" y="60.25" width="4" height="4"/>
  <rect class="cls-7" x="40.26" y="56.25" width="4" height="4"/>
  <rect class="cls-7" x="40.26" y="52.25" width="4" height="4"/>
  <rect class="cls-7" x="40.26" y="48.25" width="4" height="4"/>
  <rect class="cls-2" x="40.26" y="44.25" width="4" height="4"/>
  <rect class="cls-2" x="40.26" y="40.25" width="4" height="4"/>
  <rect class="cls-1" x="40.26" y="36.25" width="4" height="4"/>
  <rect class="cls-7" x="40.26" y="32.25" width="4" height="4"/>
  <rect class="cls-1" x="40.26" y="28.25" width="4" height="4"/>
  <rect class="cls-1" x="40.26" y="24.25" width="4" height="4"/>
  <rect class="cls-1" x="40.26" y="20.25" width="4" height="4"/>
  <rect class="cls-9" x="36.26" y="124.25" width="4" height="4"/>
  <rect class="cls-8" x="36.26" y="120.25" width="4" height="4"/>
  <rect class="cls-8" x="36.26" y="116.25" width="4" height="4"/>
  <rect class="cls-4" x="36.26" y="112.25" width="4" height="4"/>
  <rect class="cls-4" x="36.26" y="108.25" width="4" height="4"/>
  <rect class="cls-4" x="36.26" y="104.25" width="4" height="4"/>
  <rect class="cls-4" x="36.26" y="100.25" width="4" height="4"/>
  <rect class="cls-4" x="36.26" y="96.25" width="4" height="4"/>
  <rect class="cls-4" x="36.26" y="92.25" width="4" height="4"/>
  <rect class="cls-4" x="36.26" y="88.25" width="4" height="4"/>
  <rect class="cls-7" x="36.26" y="84.25" width="4" height="4"/>
  <rect class="cls-7" x="36.26" y="80.25" width="4" height="4"/>
  <rect class="cls-7" x="36.26" y="76.25" width="4" height="4"/>
  <rect class="cls-7" x="36.26" y="72.25" width="4" height="4"/>
  <rect class="cls-7" x="36.26" y="68.25" width="4" height="4"/>
  <rect class="cls-7" x="36.26" y="64.25" width="4" height="4"/>
  <rect class="cls-7" x="36.26" y="60.25" width="4" height="4"/>
  <rect class="cls-7" x="36.26" y="56.25" width="4" height="4"/>
  <rect class="cls-7" x="36.26" y="52.25" width="4" height="4"/>
  <rect class="cls-2" x="36.26" y="48.25" width="4" height="4"/>
  <rect class="cls-2" x="36.26" y="44.25" width="4" height="4"/>
  <rect class="cls-7" x="36.26" y="40.25" width="4" height="4"/>
  <rect class="cls-7" x="36.26" y="36.25" width="4" height="4"/>
  <rect class="cls-7" x="36.26" y="32.25" width="4" height="4"/>
  <rect class="cls-1" x="36.26" y="28.25" width="4" height="4"/>
  <rect class="cls-1" x="36.26" y="24.25" width="4" height="4"/>
  <rect class="cls-9" x="32.26" y="124.25" width="4" height="4"/>
  <rect class="cls-8" x="32.26" y="120.25" width="4" height="4"/>
  <rect class="cls-9" x="32.26" y="116.25" width="4" height="4"/>
  <rect class="cls-4" x="32.26" y="112.25" width="4" height="4"/>
  <rect class="cls-4" x="32.26" y="108.25" width="4" height="4"/>
  <rect class="cls-4" x="32.26" y="104.25" width="4" height="4"/>
  <rect class="cls-4" x="32.26" y="100.25" width="4" height="4"/>
  <rect class="cls-4" x="32.26" y="96.25" width="4" height="4"/>
  <rect class="cls-7" x="32.26" y="92.25" width="4" height="4"/>
  <rect class="cls-7" x="32.26" y="88.25" width="4" height="4"/>
  <rect class="cls-7" x="32.26" y="84.25" width="4" height="4"/>
  <rect class="cls-7" x="32.26" y="80.25" width="4" height="4"/>
  <rect class="cls-7" x="32.26" y="76.25" width="4" height="4"/>
  <rect class="cls-7" x="32.26" y="72.25" width="4" height="4"/>
  <rect class="cls-7" x="32.26" y="68.25" width="4" height="4"/>
  <rect class="cls-7" x="32.26" y="64.25" width="4" height="4"/>
  <rect class="cls-7" x="32.26" y="60.25" width="4" height="4"/>
  <rect class="cls-2" x="32.26" y="56.25" width="4" height="4"/>
  <rect class="cls-2" x="32.26" y="52.25" width="4" height="4"/>
  <rect class="cls-2" x="32.26" y="48.25" width="4" height="4"/>
  <rect class="cls-2" x="32.26" y="44.25" width="4" height="4"/>
  <rect class="cls-7" x="32.26" y="40.25" width="4" height="4"/>
  <rect class="cls-7" x="32.26" y="36.25" width="4" height="4"/>
  <rect class="cls-1" x="32.26" y="32.25" width="4" height="4"/>
  <rect class="cls-1" x="32.26" y="28.25" width="4" height="4"/>
  <rect class="cls-9" x="28.26" y="124.25" width="4" height="4"/>
  <rect class="cls-9" x="28.26" y="120.25" width="4" height="4"/>
  <rect class="cls-4" x="28.26" y="112.25" width="4" height="4"/>
  <rect class="cls-4" x="28.26" y="108.25" width="4" height="4"/>
  <rect class="cls-4" x="28.26" y="104.25" width="4" height="4"/>
  <rect class="cls-7" x="28.26" y="100.25" width="4" height="4"/>
  <rect class="cls-7" x="28.26" y="96.25" width="4" height="4"/>
  <rect class="cls-7" x="28.26" y="92.25" width="4" height="4"/>
  <rect class="cls-7" x="28.26" y="88.25" width="4" height="4"/>
  <rect class="cls-7" x="28.26" y="84.25" width="4" height="4"/>
  <rect class="cls-7" x="28.26" y="80.25" width="4" height="4"/>
  <rect class="cls-7" x="28.26" y="76.25" width="4" height="4"/>
  <rect class="cls-2" x="28.26" y="72.25" width="4" height="4"/>
  <rect class="cls-2" x="28.26" y="68.25" width="4" height="4"/>
  <rect class="cls-2" x="28.26" y="64.25" width="4" height="4"/>
  <rect class="cls-2" x="28.26" y="60.25" width="4" height="4"/>
  <rect class="cls-2" x="28.26" y="56.25" width="4" height="4"/>
  <rect class="cls-2" x="28.26" y="52.25" width="4" height="4"/>
  <rect class="cls-7" x="28.26" y="48.25" width="4" height="4"/>
  <rect class="cls-7" x="28.26" y="44.25" width="4" height="4"/>
  <rect class="cls-7" x="28.26" y="40.25" width="4" height="4"/>
  <rect class="cls-7" x="28.26" y="36.25" width="4" height="4"/>
  <rect class="cls-9" x="24.26" y="124.25" width="4" height="4"/>
  <rect class="cls-4" x="24.26" y="112.25" width="4" height="4"/>
  <rect class="cls-4" x="24.26" y="108.25" width="4" height="4"/>
  <rect class="cls-7" x="24.26" y="104.25" width="4" height="4"/>
  <rect class="cls-7" x="24.26" y="100.25" width="4" height="4"/>
  <rect class="cls-7" x="24.26" y="96.25" width="4" height="4"/>
  <rect class="cls-7" x="24.26" y="92.25" width="4" height="4"/>
  <rect class="cls-7" x="24.26" y="88.25" width="4" height="4"/>
  <rect class="cls-7" x="24.26" y="84.25" width="4" height="4"/>
  <rect class="cls-2" x="24.26" y="80.25" width="4" height="4"/>
  <rect class="cls-2" x="24.26" y="76.25" width="4" height="4"/>
  <rect class="cls-2" x="24.26" y="72.25" width="4" height="4"/>
  <rect class="cls-2" x="24.26" y="68.25" width="4" height="4"/>
  <rect class="cls-2" x="24.26" y="64.25" width="4" height="4"/>
  <rect class="cls-2" x="24.26" y="60.25" width="4" height="4"/>
  <rect class="cls-2" x="24.26" y="56.25" width="4" height="4"/>
  <rect class="cls-2" x="24.26" y="52.25" width="4" height="4"/>
  <rect class="cls-7" x="20.26" y="104.25" width="4" height="4"/>
  <rect class="cls-7" x="20.26" y="100.25" width="4" height="4"/>
  <rect class="cls-7" x="20.26" y="96.25" width="4" height="4"/>
  <rect class="cls-7" x="20.26" y="92.25" width="4" height="4"/>
  <rect class="cls-2" x="20.26" y="88.25" width="4" height="4"/>
  <rect class="cls-2" x="20.26" y="84.25" width="4" height="4"/>
  <rect class="cls-2" x="20.26" y="80.25" width="4" height="4"/>
</svg>