<?xml version="1.0" encoding="UTF-8"?>
<svg id="Layer_1" data-name="Layer 1" xmlns="http://www.w3.org/2000/svg" viewBox="0 0 128.5 128.5">
  <defs>
    <style>
      .cls-1 {
        fill: #a07955;
      }

      .cls-1, .cls-2, .cls-3, .cls-4, .cls-5, .cls-6 {
        stroke-width: 0px;
      }

      .cls-2 {
        fill: #8a6948;
      }

      .cls-3 {
        fill: #fce8b6;
      }

      .cls-4 {
        fill: #725641;
      }

      .cls-5 {
        fill: #483c1b;
      }

      .cls-6 {
        fill: #f7f1c1;
      }
    </style>
  </defs>
  <rect class="cls-5" x="108.26" y="108.23" width="4" height="4"/>
  <rect class="cls-5" x="108.26" y="104.23" width="4" height="4"/>
  <rect class="cls-5" x="108.26" y="100.23" width="4" height="4"/>
  <rect class="cls-5" x="108.26" y="96.23" width="4" height="4"/>
  <rect class="cls-5" x="104.26" y="108.23" width="4" height="4"/>
  <rect class="cls-5" x="104.26" y="104.23" width="4" height="4"/>
  <rect class="cls-5" x="104.26" y="100.23" width="4" height="4"/>
  <rect class="cls-5" x="104.26" y="96.23" width="4" height="4"/>
  <rect class="cls-5" x="104.26" y="92.23" width="4" height="4"/>
  <rect class="cls-5" x="104.26" y="88.23" width="4" height="4"/>
  <rect class="cls-5" x="104.26" y="84.23" width="4" height="4"/>
  <rect class="cls-5" x="104.26" y="80.23" width="4" height="4"/>
  <rect class="cls-5" x="100.26" y="112.23" width="4" height="4"/>
  <rect class="cls-5" x="100.26" y="108.23" width="4" height="4"/>
  <rect class="cls-5" x="100.26" y="104.23" width="4" height="4"/>
  <rect class="cls-5" x="100.26" y="100.23" width="4" height="4"/>
  <rect class="cls-5" x="100.26" y="96.23" width="4" height="4"/>
  <rect class="cls-2" x="100.26" y="92.23" width="4" height="4"/>
  <rect class="cls-2" x="100.26" y="88.23" width="4" height="4"/>
  <rect class="cls-2" x="100.26" y="84.23" width="4" height="4"/>
  <rect class="cls-5" x="100.26" y="80.23" width="4" height="4"/>
  <rect class="cls-5" x="100.26" y="76.23" width="4" height="4"/>
  <rect class="cls-5" x="96.26" y="112.23" width="4" height="4"/>
  <rect class="cls-5" x="96.26" y="108.23" width="4" height="4"/>
  <rect class="cls-4" x="96.26" y="104.23" width="4" height="4"/>
  <rect class="cls-5" x="96.26" y="100.23" width="4" height="4"/>
  <rect class="cls-5" x="96.26" y="96.23" width="4" height="4"/>
  <rect class="cls-2" x="96.26" y="92.23" width="4" height="4"/>
  <rect class="cls-2" x="96.26" y="88.23" width="4" height="4"/>
  <rect class="cls-2" x="96.26" y="84.23" width="4" height="4"/>
  <rect class="cls-4" x="96.26" y="80.23" width="4" height="4"/>
  <rect class="cls-5" x="96.26" y="76.23" width="4" height="4"/>
  <rect class="cls-5" x="96.26" y="48.23" width="4" height="4"/>
  <rect class="cls-5" x="96.26" y="44.23" width="4" height="4"/>
  <rect class="cls-5" x="96.26" y="40.23" width="4" height="4"/>
  <rect class="cls-5" x="96.26" y="36.23" width="4" height="4"/>
  <rect class="cls-5" x="96.26" y="32.23" width="4" height="4"/>
  <rect class="cls-5" x="96.26" y="28.23" width="4" height="4"/>
  <rect class="cls-5" x="96.26" y="24.23" width="4" height="4"/>
  <rect class="cls-5" x="92.26" y="112.23" width="4" height="4"/>
  <rect class="cls-4" x="92.26" y="108.23" width="4" height="4"/>
  <rect class="cls-1" x="92.26" y="104.23" width="4" height="4"/>
  <rect class="cls-5" x="92.26" y="100.23" width="4" height="4"/>
  <rect class="cls-5" x="92.26" y="96.23" width="4" height="4"/>
  <rect class="cls-2" x="92.26" y="92.23" width="4" height="4"/>
  <rect class="cls-1" x="92.26" y="88.23" width="4" height="4"/>
  <rect class="cls-1" x="92.26" y="84.23" width="4" height="4"/>
  <rect class="cls-2" x="92.26" y="80.23" width="4" height="4"/>
  <rect class="cls-5" x="92.26" y="76.23" width="4" height="4"/>
  <rect class="cls-5" x="92.26" y="72.23" width="4" height="4"/>
  <rect class="cls-5" x="92.26" y="56.23" width="4" height="4"/>
  <rect class="cls-5" x="92.26" y="52.23" width="4" height="4"/>
  <rect class="cls-3" x="92.26" y="48.23" width="4" height="4"/>
  <rect class="cls-3" x="92.26" y="44.23" width="4" height="4"/>
  <rect class="cls-3" x="92.26" y="40.23" width="4" height="4"/>
  <rect class="cls-3" x="92.26" y="36.23" width="4" height="4"/>
  <rect class="cls-3" x="92.26" y="32.23" width="4" height="4"/>
  <rect class="cls-3" x="92.26" y="28.23" width="4" height="4"/>
  <rect class="cls-5" x="92.26" y="24.23" width="4" height="4"/>
  <rect class="cls-5" x="92.26" y="20.23" width="4" height="4"/>
  <rect class="cls-5" x="88.26" y="112.23" width="4" height="4"/>
  <rect class="cls-4" x="88.26" y="108.23" width="4" height="4"/>
  <rect class="cls-1" x="88.26" y="104.23" width="4" height="4"/>
  <rect class="cls-5" x="88.26" y="100.23" width="4" height="4"/>
  <rect class="cls-5" x="88.26" y="96.23" width="4" height="4"/>
  <rect class="cls-2" x="88.26" y="92.23" width="4" height="4"/>
  <rect class="cls-1" x="88.26" y="88.23" width="4" height="4"/>
  <rect class="cls-2" x="88.26" y="84.23" width="4" height="4"/>
  <rect class="cls-2" x="88.26" y="80.23" width="4" height="4"/>
  <rect class="cls-5" x="88.26" y="76.23" width="4" height="4"/>
  <rect class="cls-5" x="88.26" y="72.23" width="4" height="4"/>
  <rect class="cls-5" x="88.26" y="60.23" width="4" height="4"/>
  <rect class="cls-5" x="88.26" y="56.23" width="4" height="4"/>
  <rect class="cls-3" x="88.26" y="52.23" width="4" height="4"/>
  <rect class="cls-4" x="88.26" y="48.23" width="4" height="4"/>
  <rect class="cls-4" x="88.26" y="44.23" width="4" height="4"/>
  <rect class="cls-4" x="88.26" y="40.23" width="4" height="4"/>
  <rect class="cls-4" x="88.26" y="36.23" width="4" height="4"/>
  <rect class="cls-4" x="88.26" y="32.23" width="4" height="4"/>
  <rect class="cls-4" x="88.26" y="28.23" width="4" height="4"/>
  <rect class="cls-4" x="88.26" y="24.23" width="4" height="4"/>
  <rect class="cls-6" x="88.26" y="20.23" width="4" height="4"/>
  <rect class="cls-5" x="88.26" y="16.23" width="4" height="4"/>
  <rect class="cls-5" x="84.26" y="112.23" width="4" height="4"/>
  <rect class="cls-4" x="84.26" y="108.23" width="4" height="4"/>
  <rect class="cls-4" x="84.26" y="104.23" width="4" height="4"/>
  <rect class="cls-5" x="84.26" y="100.23" width="4" height="4"/>
  <rect class="cls-2" x="84.26" y="96.23" width="4" height="4"/>
  <rect class="cls-2" x="84.26" y="92.23" width="4" height="4"/>
  <rect class="cls-1" x="84.26" y="88.23" width="4" height="4"/>
  <rect class="cls-2" x="84.26" y="84.23" width="4" height="4"/>
  <rect class="cls-2" x="84.26" y="80.23" width="4" height="4"/>
  <rect class="cls-5" x="84.26" y="76.23" width="4" height="4"/>
  <rect class="cls-5" x="84.26" y="64.23" width="4" height="4"/>
  <rect class="cls-5" x="84.26" y="60.23" width="4" height="4"/>
  <rect class="cls-6" x="84.26" y="56.23" width="4" height="4"/>
  <rect class="cls-1" x="84.26" y="52.23" width="4" height="4"/>
  <rect class="cls-1" x="84.26" y="48.23" width="4" height="4"/>
  <rect class="cls-1" x="84.26" y="44.23" width="4" height="4"/>
  <rect class="cls-1" x="84.26" y="40.23" width="4" height="4"/>
  <rect class="cls-1" x="84.26" y="36.23" width="4" height="4"/>
  <rect class="cls-1" x="84.26" y="32.23" width="4" height="4"/>
  <rect class="cls-4" x="84.26" y="28.23" width="4" height="4"/>
  <rect class="cls-4" x="84.26" y="24.23" width="4" height="4"/>
  <rect class="cls-4" x="84.26" y="20.23" width="4" height="4"/>
  <rect class="cls-6" x="84.26" y="16.23" width="4" height="4"/>
  <rect class="cls-5" x="84.26" y="12.23" width="4" height="4"/>
  <rect class="cls-5" x="80.26" y="112.23" width="4" height="4"/>
  <rect class="cls-5" x="80.26" y="108.23" width="4" height="4"/>
  <rect class="cls-4" x="80.26" y="104.23" width="4" height="4"/>
  <rect class="cls-5" x="80.26" y="100.23" width="4" height="4"/>
  <rect class="cls-2" x="80.26" y="96.23" width="4" height="4"/>
  <rect class="cls-2" x="80.26" y="92.23" width="4" height="4"/>
  <rect class="cls-1" x="80.26" y="88.23" width="4" height="4"/>
  <rect class="cls-2" x="80.26" y="84.23" width="4" height="4"/>
  <rect class="cls-5" x="80.26" y="80.23" width="4" height="4"/>
  <rect class="cls-5" x="80.26" y="64.23" width="4" height="4"/>
  <rect class="cls-6" x="80.26" y="60.23" width="4" height="4"/>
  <rect class="cls-3" x="80.26" y="56.23" width="4" height="4"/>
  <rect class="cls-6" x="80.26" y="52.23" width="4" height="4"/>
  <rect class="cls-6" x="80.26" y="48.23" width="4" height="4"/>
  <rect class="cls-6" x="80.26" y="44.23" width="4" height="4"/>
  <rect class="cls-3" x="80.26" y="40.23" width="4" height="4"/>
  <rect class="cls-3" x="80.26" y="36.23" width="4" height="4"/>
  <rect class="cls-1" x="80.26" y="32.23" width="4" height="4"/>
  <rect class="cls-1" x="80.26" y="28.23" width="4" height="4"/>
  <rect class="cls-1" x="80.26" y="24.23" width="4" height="4"/>
  <rect class="cls-4" x="80.26" y="20.23" width="4" height="4"/>
  <rect class="cls-6" x="80.26" y="16.23" width="4" height="4"/>
  <rect class="cls-5" x="80.26" y="12.23" width="4" height="4"/>
  <rect class="cls-5" x="76.26" y="108.23" width="4" height="4"/>
  <rect class="cls-4" x="76.26" y="104.23" width="4" height="4"/>
  <rect class="cls-5" x="76.26" y="100.23" width="4" height="4"/>
  <rect class="cls-2" x="76.26" y="96.23" width="4" height="4"/>
  <rect class="cls-2" x="76.26" y="92.23" width="4" height="4"/>
  <rect class="cls-1" x="76.26" y="88.23" width="4" height="4"/>
  <rect class="cls-2" x="76.26" y="84.23" width="4" height="4"/>
  <rect class="cls-5" x="76.26" y="80.23" width="4" height="4"/>
  <rect class="cls-2" x="76.26" y="76.23" width="4" height="4"/>
  <rect class="cls-2" x="76.26" y="72.23" width="4" height="4"/>
  <rect class="cls-2" x="76.26" y="68.23" width="4" height="4"/>
  <rect class="cls-1" x="76.26" y="64.23" width="4" height="4"/>
  <rect class="cls-1" x="76.26" y="60.23" width="4" height="4"/>
  <rect class="cls-3" x="76.26" y="56.23" width="4" height="4"/>
  <rect class="cls-3" x="76.26" y="52.23" width="4" height="4"/>
  <rect class="cls-6" x="76.26" y="48.23" width="4" height="4"/>
  <rect class="cls-6" x="76.26" y="44.23" width="4" height="4"/>
  <rect class="cls-3" x="76.26" y="40.23" width="4" height="4"/>
  <rect class="cls-3" x="76.26" y="36.23" width="4" height="4"/>
  <rect class="cls-3" x="76.26" y="32.23" width="4" height="4"/>
  <rect class="cls-3" x="76.26" y="28.23" width="4" height="4"/>
  <rect class="cls-3" x="76.26" y="24.23" width="4" height="4"/>
  <rect class="cls-3" x="76.26" y="20.23" width="4" height="4"/>
  <rect class="cls-6" x="76.26" y="16.23" width="4" height="4"/>
  <rect class="cls-5" x="76.26" y="12.23" width="4" height="4"/>
  <rect class="cls-5" x="72.26" y="108.23" width="4" height="4"/>
  <rect class="cls-5" x="72.26" y="104.23" width="4" height="4"/>
  <rect class="cls-5" x="72.26" y="100.23" width="4" height="4"/>
  <rect class="cls-2" x="72.26" y="96.23" width="4" height="4"/>
  <rect class="cls-1" x="72.26" y="92.23" width="4" height="4"/>
  <rect class="cls-1" x="72.26" y="88.23" width="4" height="4"/>
  <rect class="cls-2" x="72.26" y="84.23" width="4" height="4"/>
  <rect class="cls-5" x="72.26" y="80.23" width="4" height="4"/>
  <rect class="cls-2" x="72.26" y="76.23" width="4" height="4"/>
  <rect class="cls-2" x="72.26" y="72.23" width="4" height="4"/>
  <rect class="cls-2" x="72.26" y="68.23" width="4" height="4"/>
  <rect class="cls-1" x="72.26" y="64.23" width="4" height="4"/>
  <rect class="cls-1" x="72.26" y="60.23" width="4" height="4"/>
  <rect class="cls-1" x="72.26" y="56.23" width="4" height="4"/>
  <rect class="cls-1" x="72.26" y="52.23" width="4" height="4"/>
  <rect class="cls-1" x="72.26" y="48.23" width="4" height="4"/>
  <rect class="cls-1" x="72.26" y="44.23" width="4" height="4"/>
  <rect class="cls-1" x="72.26" y="40.23" width="4" height="4"/>
  <rect class="cls-1" x="72.26" y="36.23" width="4" height="4"/>
  <rect class="cls-1" x="72.26" y="32.23" width="4" height="4"/>
  <rect class="cls-1" x="72.26" y="28.23" width="4" height="4"/>
  <rect class="cls-1" x="72.26" y="24.23" width="4" height="4"/>
  <rect class="cls-1" x="72.26" y="20.23" width="4" height="4"/>
  <rect class="cls-5" x="72.26" y="16.23" width="4" height="4"/>
  <rect class="cls-5" x="72.26" y="12.23" width="4" height="4"/>
  <rect class="cls-5" x="68.26" y="108.23" width="4" height="4"/>
  <rect class="cls-5" x="68.26" y="104.23" width="4" height="4"/>
  <rect class="cls-5" x="68.26" y="100.23" width="4" height="4"/>
  <rect class="cls-2" x="68.26" y="96.23" width="4" height="4"/>
  <rect class="cls-1" x="68.26" y="92.23" width="4" height="4"/>
  <rect class="cls-2" x="68.26" y="88.23" width="4" height="4"/>
  <rect class="cls-5" x="68.26" y="84.23" width="4" height="4"/>
  <rect class="cls-5" x="68.26" y="80.23" width="4" height="4"/>
  <rect class="cls-1" x="68.26" y="76.23" width="4" height="4"/>
  <rect class="cls-2" x="68.26" y="72.23" width="4" height="4"/>
  <rect class="cls-2" x="68.26" y="68.23" width="4" height="4"/>
  <rect class="cls-2" x="68.26" y="64.23" width="4" height="4"/>
  <rect class="cls-1" x="68.26" y="60.23" width="4" height="4"/>
  <rect class="cls-2" x="68.26" y="56.23" width="4" height="4"/>
  <rect class="cls-2" x="68.26" y="52.23" width="4" height="4"/>
  <rect class="cls-1" x="68.26" y="48.23" width="4" height="4"/>
  <rect class="cls-1" x="68.26" y="44.23" width="4" height="4"/>
  <rect class="cls-1" x="68.26" y="40.23" width="4" height="4"/>
  <rect class="cls-1" x="68.26" y="36.23" width="4" height="4"/>
  <rect class="cls-1" x="68.26" y="32.23" width="4" height="4"/>
  <rect class="cls-1" x="68.26" y="28.23" width="4" height="4"/>
  <rect class="cls-1" x="68.26" y="24.23" width="4" height="4"/>
  <rect class="cls-1" x="68.26" y="20.23" width="4" height="4"/>
  <rect class="cls-1" x="68.26" y="16.23" width="4" height="4"/>
  <rect class="cls-1" x="68.26" y="12.23" width="4" height="4"/>
  <rect class="cls-5" x="68.26" y="8.23" width="4" height="4"/>
  <rect class="cls-5" x="64.26" y="108.23" width="4" height="4"/>
  <rect class="cls-2" x="64.26" y="104.23" width="4" height="4"/>
  <rect class="cls-2" x="64.26" y="100.23" width="4" height="4"/>
  <rect class="cls-1" x="64.26" y="96.23" width="4" height="4"/>
  <rect class="cls-1" x="64.26" y="92.23" width="4" height="4"/>
  <rect class="cls-2" x="64.26" y="88.23" width="4" height="4"/>
  <rect class="cls-5" x="64.26" y="84.23" width="4" height="4"/>
  <rect class="cls-5" x="64.26" y="80.23" width="4" height="4"/>
  <rect class="cls-1" x="64.26" y="76.23" width="4" height="4"/>
  <rect class="cls-1" x="64.26" y="72.23" width="4" height="4"/>
  <rect class="cls-2" x="64.26" y="68.23" width="4" height="4"/>
  <rect class="cls-2" x="64.26" y="64.23" width="4" height="4"/>
  <rect class="cls-2" x="64.26" y="60.23" width="4" height="4"/>
  <rect class="cls-4" x="64.26" y="56.23" width="4" height="4"/>
  <rect class="cls-1" x="64.26" y="52.23" width="4" height="4"/>
  <rect class="cls-1" x="64.26" y="48.23" width="4" height="4"/>
  <rect class="cls-1" x="64.26" y="44.23" width="4" height="4"/>
  <rect class="cls-1" x="64.26" y="40.23" width="4" height="4"/>
  <rect class="cls-1" x="64.26" y="36.23" width="4" height="4"/>
  <rect class="cls-1" x="64.26" y="32.23" width="4" height="4"/>
  <rect class="cls-2" x="64.26" y="28.23" width="4" height="4"/>
  <rect class="cls-1" x="64.26" y="24.23" width="4" height="4"/>
  <rect class="cls-1" x="64.26" y="20.23" width="4" height="4"/>
  <rect class="cls-1" x="64.26" y="16.23" width="4" height="4"/>
  <rect class="cls-1" x="64.26" y="12.23" width="4" height="4"/>
  <rect class="cls-1" x="64.26" y="8.23" width="4" height="4"/>
  <rect class="cls-5" x="64.26" y="4.23" width="4" height="4"/>
  <rect class="cls-2" x="60.26" y="108.23" width="4" height="4"/>
  <rect class="cls-2" x="60.26" y="104.23" width="4" height="4"/>
  <rect class="cls-2" x="60.26" y="100.23" width="4" height="4"/>
  <rect class="cls-1" x="60.26" y="96.23" width="4" height="4"/>
  <rect class="cls-2" x="60.26" y="92.23" width="4" height="4"/>
  <rect class="cls-2" x="60.26" y="88.23" width="4" height="4"/>
  <rect class="cls-5" x="60.26" y="84.23" width="4" height="4"/>
  <rect class="cls-5" x="60.26" y="80.23" width="4" height="4"/>
  <rect class="cls-2" x="60.26" y="76.23" width="4" height="4"/>
  <rect class="cls-2" x="60.26" y="72.23" width="4" height="4"/>
  <rect class="cls-2" x="60.26" y="68.23" width="4" height="4"/>
  <rect class="cls-2" x="60.26" y="64.23" width="4" height="4"/>
  <rect class="cls-2" x="60.26" y="60.23" width="4" height="4"/>
  <rect class="cls-2" x="60.26" y="56.23" width="4" height="4"/>
  <rect class="cls-4" x="60.26" y="52.23" width="4" height="4"/>
  <rect class="cls-1" x="60.26" y="48.23" width="4" height="4"/>
  <rect class="cls-1" x="60.26" y="44.23" width="4" height="4"/>
  <rect class="cls-1" x="60.26" y="40.23" width="4" height="4"/>
  <rect class="cls-1" x="60.26" y="36.23" width="4" height="4"/>
  <rect class="cls-1" x="60.26" y="32.23" width="4" height="4"/>
  <rect class="cls-1" x="60.26" y="28.23" width="4" height="4"/>
  <rect class="cls-1" x="60.26" y="24.23" width="4" height="4"/>
  <rect class="cls-1" x="60.26" y="20.23" width="4" height="4"/>
  <rect class="cls-1" x="60.26" y="16.23" width="4" height="4"/>
  <rect class="cls-1" x="60.26" y="12.23" width="4" height="4"/>
  <rect class="cls-1" x="60.26" y="8.23" width="4" height="4"/>
  <rect class="cls-5" x="60.26" y="4.23" width="4" height="4"/>
  <rect class="cls-2" x="56.26" y="108.23" width="4" height="4"/>
  <rect class="cls-2" x="56.26" y="104.23" width="4" height="4"/>
  <rect class="cls-1" x="56.26" y="100.23" width="4" height="4"/>
  <rect class="cls-1" x="56.26" y="96.23" width="4" height="4"/>
  <rect class="cls-2" x="56.26" y="92.23" width="4" height="4"/>
  <rect class="cls-2" x="56.26" y="88.23" width="4" height="4"/>
  <rect class="cls-2" x="56.26" y="84.23" width="4" height="4"/>
  <rect class="cls-5" x="56.26" y="80.23" width="4" height="4"/>
  <rect class="cls-5" x="56.26" y="72.23" width="4" height="4"/>
  <rect class="cls-5" x="56.26" y="68.23" width="4" height="4"/>
  <rect class="cls-1" x="56.26" y="64.23" width="4" height="4"/>
  <rect class="cls-1" x="56.26" y="60.23" width="4" height="4"/>
  <rect class="cls-1" x="56.26" y="56.23" width="4" height="4"/>
  <rect class="cls-3" x="56.26" y="52.23" width="4" height="4"/>
  <rect class="cls-3" x="56.26" y="48.23" width="4" height="4"/>
  <rect class="cls-1" x="56.26" y="44.23" width="4" height="4"/>
  <rect class="cls-1" x="56.26" y="40.23" width="4" height="4"/>
  <rect class="cls-1" x="56.26" y="36.23" width="4" height="4"/>
  <rect class="cls-1" x="56.26" y="32.23" width="4" height="4"/>
  <rect class="cls-1" x="56.26" y="28.23" width="4" height="4"/>
  <rect class="cls-1" x="56.26" y="24.23" width="4" height="4"/>
  <rect class="cls-1" x="56.26" y="20.23" width="4" height="4"/>
  <rect class="cls-1" x="56.26" y="16.23" width="4" height="4"/>
  <rect class="cls-1" x="56.26" y="12.23" width="4" height="4"/>
  <rect class="cls-1" x="56.26" y="8.23" width="4" height="4"/>
  <rect class="cls-5" x="56.26" y="4.23" width="4" height="4"/>
  <rect class="cls-2" x="52.26" y="108.23" width="4" height="4"/>
  <rect class="cls-2" x="52.26" y="104.23" width="4" height="4"/>
  <rect class="cls-1" x="52.26" y="100.23" width="4" height="4"/>
  <rect class="cls-2" x="52.26" y="96.23" width="4" height="4"/>
  <rect class="cls-2" x="52.26" y="92.23" width="4" height="4"/>
  <rect class="cls-5" x="52.26" y="88.23" width="4" height="4"/>
  <rect class="cls-5" x="52.26" y="84.23" width="4" height="4"/>
  <rect class="cls-5" x="52.26" y="80.23" width="4" height="4"/>
  <rect class="cls-5" x="52.26" y="68.23" width="4" height="4"/>
  <rect class="cls-1" x="52.26" y="64.23" width="4" height="4"/>
  <rect class="cls-3" x="52.26" y="60.23" width="4" height="4"/>
  <rect class="cls-3" x="52.26" y="56.23" width="4" height="4"/>
  <rect class="cls-3" x="52.26" y="52.23" width="4" height="4"/>
  <rect class="cls-3" x="52.26" y="48.23" width="4" height="4"/>
  <rect class="cls-3" x="52.26" y="44.23" width="4" height="4"/>
  <rect class="cls-3" x="52.26" y="40.23" width="4" height="4"/>
  <rect class="cls-3" x="52.26" y="36.23" width="4" height="4"/>
  <rect class="cls-3" x="52.26" y="32.23" width="4" height="4"/>
  <rect class="cls-3" x="52.26" y="28.23" width="4" height="4"/>
  <rect class="cls-6" x="52.26" y="24.23" width="4" height="4"/>
  <rect class="cls-6" x="52.26" y="20.23" width="4" height="4"/>
  <rect class="cls-1" x="52.26" y="16.23" width="4" height="4"/>
  <rect class="cls-5" x="52.26" y="12.23" width="4" height="4"/>
  <rect class="cls-5" x="52.26" y="8.23" width="4" height="4"/>
  <rect class="cls-2" x="48.26" y="112.23" width="4" height="4"/>
  <rect class="cls-2" x="48.26" y="108.23" width="4" height="4"/>
  <rect class="cls-2" x="48.26" y="104.23" width="4" height="4"/>
  <rect class="cls-1" x="48.26" y="100.23" width="4" height="4"/>
  <rect class="cls-1" x="48.26" y="96.23" width="4" height="4"/>
  <rect class="cls-2" x="48.26" y="92.23" width="4" height="4"/>
  <rect class="cls-5" x="48.26" y="88.23" width="4" height="4"/>
  <rect class="cls-5" x="48.26" y="84.23" width="4" height="4"/>
  <rect class="cls-5" x="48.26" y="68.23" width="4" height="4"/>
  <rect class="cls-5" x="48.26" y="64.23" width="4" height="4"/>
  <rect class="cls-6" x="48.26" y="60.23" width="4" height="4"/>
  <rect class="cls-3" x="48.26" y="56.23" width="4" height="4"/>
  <rect class="cls-3" x="48.26" y="52.23" width="4" height="4"/>
  <rect class="cls-1" x="48.26" y="48.23" width="4" height="4"/>
  <rect class="cls-1" x="48.26" y="44.23" width="4" height="4"/>
  <rect class="cls-1" x="48.26" y="40.23" width="4" height="4"/>
  <rect class="cls-3" x="48.26" y="36.23" width="4" height="4"/>
  <rect class="cls-6" x="48.26" y="32.23" width="4" height="4"/>
  <rect class="cls-3" x="48.26" y="28.23" width="4" height="4"/>
  <rect class="cls-3" x="48.26" y="24.23" width="4" height="4"/>
  <rect class="cls-3" x="48.26" y="20.23" width="4" height="4"/>
  <rect class="cls-5" x="48.26" y="16.23" width="4" height="4"/>
  <rect class="cls-5" x="48.26" y="12.23" width="4" height="4"/>
  <rect class="cls-2" x="44.26" y="112.23" width="4" height="4"/>
  <rect class="cls-2" x="44.26" y="108.23" width="4" height="4"/>
  <rect class="cls-1" x="44.26" y="104.23" width="4" height="4"/>
  <rect class="cls-1" x="44.26" y="100.23" width="4" height="4"/>
  <rect class="cls-1" x="44.26" y="96.23" width="4" height="4"/>
  <rect class="cls-2" x="44.26" y="92.23" width="4" height="4"/>
  <rect class="cls-5" x="44.26" y="88.23" width="4" height="4"/>
  <rect class="cls-5" x="44.26" y="84.23" width="4" height="4"/>
  <rect class="cls-5" x="44.26" y="64.23" width="4" height="4"/>
  <rect class="cls-5" x="44.26" y="60.23" width="4" height="4"/>
  <rect class="cls-3" x="44.26" y="56.23" width="4" height="4"/>
  <rect class="cls-3" x="44.26" y="52.23" width="4" height="4"/>
  <rect class="cls-4" x="44.26" y="48.23" width="4" height="4"/>
  <rect class="cls-4" x="44.26" y="44.23" width="4" height="4"/>
  <rect class="cls-1" x="44.26" y="40.23" width="4" height="4"/>
  <rect class="cls-1" x="44.26" y="36.23" width="4" height="4"/>
  <rect class="cls-1" x="44.26" y="32.23" width="4" height="4"/>
  <rect class="cls-1" x="44.26" y="28.23" width="4" height="4"/>
  <rect class="cls-1" x="44.26" y="24.23" width="4" height="4"/>
  <rect class="cls-1" x="44.26" y="20.23" width="4" height="4"/>
  <rect class="cls-6" x="44.26" y="16.23" width="4" height="4"/>
  <rect class="cls-5" x="44.26" y="12.23" width="4" height="4"/>
  <rect class="cls-2" x="40.26" y="112.23" width="4" height="4"/>
  <rect class="cls-2" x="40.26" y="108.23" width="4" height="4"/>
  <rect class="cls-1" x="40.26" y="104.23" width="4" height="4"/>
  <rect class="cls-1" x="40.26" y="100.23" width="4" height="4"/>
  <rect class="cls-2" x="40.26" y="96.23" width="4" height="4"/>
  <rect class="cls-5" x="40.26" y="92.23" width="4" height="4"/>
  <rect class="cls-5" x="40.26" y="88.23" width="4" height="4"/>
  <rect class="cls-5" x="40.26" y="84.23" width="4" height="4"/>
  <rect class="cls-5" x="40.26" y="60.23" width="4" height="4"/>
  <rect class="cls-5" x="40.26" y="56.23" width="4" height="4"/>
  <rect class="cls-3" x="40.26" y="52.23" width="4" height="4"/>
  <rect class="cls-3" x="40.26" y="48.23" width="4" height="4"/>
  <rect class="cls-4" x="40.26" y="44.23" width="4" height="4"/>
  <rect class="cls-4" x="40.26" y="40.23" width="4" height="4"/>
  <rect class="cls-4" x="40.26" y="36.23" width="4" height="4"/>
  <rect class="cls-4" x="40.26" y="32.23" width="4" height="4"/>
  <rect class="cls-1" x="40.26" y="28.23" width="4" height="4"/>
  <rect class="cls-4" x="40.26" y="24.23" width="4" height="4"/>
  <rect class="cls-4" x="40.26" y="20.23" width="4" height="4"/>
  <rect class="cls-6" x="40.26" y="16.23" width="4" height="4"/>
  <rect class="cls-5" x="40.26" y="12.23" width="4" height="4"/>
  <rect class="cls-2" x="36.26" y="112.23" width="4" height="4"/>
  <rect class="cls-2" x="36.26" y="108.23" width="4" height="4"/>
  <rect class="cls-1" x="36.26" y="104.23" width="4" height="4"/>
  <rect class="cls-1" x="36.26" y="100.23" width="4" height="4"/>
  <rect class="cls-2" x="36.26" y="96.23" width="4" height="4"/>
  <rect class="cls-5" x="36.26" y="92.23" width="4" height="4"/>
  <rect class="cls-5" x="36.26" y="88.23" width="4" height="4"/>
  <rect class="cls-4" x="36.26" y="84.23" width="4" height="4"/>
  <rect class="cls-5" x="36.26" y="80.23" width="4" height="4"/>
  <rect class="cls-5" x="36.26" y="56.23" width="4" height="4"/>
  <rect class="cls-5" x="36.26" y="52.23" width="4" height="4"/>
  <rect class="cls-5" x="36.26" y="48.23" width="4" height="4"/>
  <rect class="cls-1" x="36.26" y="44.23" width="4" height="4"/>
  <rect class="cls-5" x="36.26" y="40.23" width="4" height="4"/>
  <rect class="cls-5" x="36.26" y="36.23" width="4" height="4"/>
  <rect class="cls-4" x="36.26" y="32.23" width="4" height="4"/>
  <rect class="cls-4" x="36.26" y="28.23" width="4" height="4"/>
  <rect class="cls-4" x="36.26" y="24.23" width="4" height="4"/>
  <rect class="cls-6" x="36.26" y="20.23" width="4" height="4"/>
  <rect class="cls-6" x="36.26" y="16.23" width="4" height="4"/>
  <rect class="cls-5" x="36.26" y="12.23" width="4" height="4"/>
  <rect class="cls-2" x="32.26" y="112.23" width="4" height="4"/>
  <rect class="cls-2" x="32.26" y="108.23" width="4" height="4"/>
  <rect class="cls-1" x="32.26" y="104.23" width="4" height="4"/>
  <rect class="cls-1" x="32.26" y="100.23" width="4" height="4"/>
  <rect class="cls-2" x="32.26" y="96.23" width="4" height="4"/>
  <rect class="cls-2" x="32.26" y="92.23" width="4" height="4"/>
  <rect class="cls-5" x="32.26" y="88.23" width="4" height="4"/>
  <rect class="cls-1" x="32.26" y="84.23" width="4" height="4"/>
  <rect class="cls-5" x="32.26" y="80.23" width="4" height="4"/>
  <rect class="cls-5" x="32.26" y="48.23" width="4" height="4"/>
  <rect class="cls-5" x="32.26" y="44.23" width="4" height="4"/>
  <rect class="cls-4" x="32.26" y="40.23" width="4" height="4"/>
  <rect class="cls-5" x="32.26" y="36.23" width="4" height="4"/>
  <rect class="cls-5" x="32.26" y="32.23" width="4" height="4"/>
  <rect class="cls-6" x="32.26" y="28.23" width="4" height="4"/>
  <rect class="cls-6" x="32.26" y="24.23" width="4" height="4"/>
  <rect class="cls-5" x="32.26" y="20.23" width="4" height="4"/>
  <rect class="cls-5" x="32.26" y="16.23" width="4" height="4"/>
  <rect class="cls-2" x="28.26" y="112.23" width="4" height="4"/>
  <rect class="cls-2" x="28.26" y="108.23" width="4" height="4"/>
  <rect class="cls-1" x="28.26" y="104.23" width="4" height="4"/>
  <rect class="cls-2" x="28.26" y="100.23" width="4" height="4"/>
  <rect class="cls-2" x="28.26" y="96.23" width="4" height="4"/>
  <rect class="cls-2" x="28.26" y="92.23" width="4" height="4"/>
  <rect class="cls-5" x="28.26" y="88.23" width="4" height="4"/>
  <rect class="cls-4" x="28.26" y="84.23" width="4" height="4"/>
  <rect class="cls-5" x="28.26" y="80.23" width="4" height="4"/>
  <rect class="cls-5" x="28.26" y="32.23" width="4" height="4"/>
  <rect class="cls-5" x="28.26" y="28.23" width="4" height="4"/>
  <rect class="cls-5" x="28.26" y="24.23" width="4" height="4"/>
  <rect class="cls-2" x="24.26" y="112.23" width="4" height="4"/>
  <rect class="cls-2" x="24.26" y="108.23" width="4" height="4"/>
  <rect class="cls-2" x="24.26" y="104.23" width="4" height="4"/>
  <rect class="cls-2" x="24.26" y="100.23" width="4" height="4"/>
  <rect class="cls-2" x="24.26" y="96.23" width="4" height="4"/>
  <rect class="cls-5" x="24.26" y="92.23" width="4" height="4"/>
  <rect class="cls-5" x="24.26" y="88.23" width="4" height="4"/>
  <rect class="cls-5" x="24.26" y="84.23" width="4" height="4"/>
  <rect class="cls-5" x="24.26" y="80.23" width="4" height="4"/>
  <rect class="cls-2" x="20.26" y="108.23" width="4" height="4"/>
  <rect class="cls-2" x="20.26" y="104.23" width="4" height="4"/>
  <rect class="cls-2" x="20.26" y="100.23" width="4" height="4"/>
  <rect class="cls-2" x="20.26" y="96.23" width="4" height="4"/>
  <rect class="cls-2" x="16.26" y="108.23" width="4" height="4"/>
  <rect class="cls-2" x="16.26" y="104.23" width="4" height="4"/>
</svg>