<?xml version="1.0" encoding="UTF-8"?>
<svg id="Layer_1" data-name="Layer 1" xmlns="http://www.w3.org/2000/svg" viewBox="0 0 128.5 128.5">
  <defs>
    <style>
      .cls-1 {
        fill: #a07955;
      }

      .cls-1, .cls-2, .cls-3, .cls-4, .cls-5, .cls-6, .cls-7 {
        stroke-width: 0px;
      }

      .cls-2 {
        fill: #8a6948;
      }

      .cls-3 {
        fill: #fce8b6;
      }

      .cls-4 {
        fill: #140a0a;
      }

      .cls-5 {
        fill: #725641;
      }

      .cls-6 {
        fill: #483c1b;
      }

      .cls-7 {
        fill: #f7f1c1;
      }
    </style>
  </defs>
  <rect class="cls-6" x="108.24" y="108.26" width="4" height="4"/>
  <rect class="cls-6" x="108.24" y="104.26" width="4" height="4"/>
  <rect class="cls-6" x="108.24" y="100.26" width="4" height="4"/>
  <rect class="cls-6" x="108.24" y="96.26" width="4" height="4"/>
  <rect class="cls-6" x="104.24" y="108.26" width="4" height="4"/>
  <rect class="cls-6" x="104.24" y="104.26" width="4" height="4"/>
  <rect class="cls-6" x="104.24" y="100.26" width="4" height="4"/>
  <rect class="cls-6" x="104.24" y="96.26" width="4" height="4"/>
  <rect class="cls-6" x="104.24" y="92.26" width="4" height="4"/>
  <rect class="cls-6" x="104.24" y="88.26" width="4" height="4"/>
  <rect class="cls-6" x="104.24" y="84.26" width="4" height="4"/>
  <rect class="cls-6" x="104.24" y="80.26" width="4" height="4"/>
  <rect class="cls-6" x="100.24" y="112.26" width="4" height="4"/>
  <rect class="cls-6" x="100.24" y="108.26" width="4" height="4"/>
  <rect class="cls-6" x="100.24" y="104.26" width="4" height="4"/>
  <rect class="cls-6" x="100.24" y="100.26" width="4" height="4"/>
  <rect class="cls-6" x="100.24" y="96.26" width="4" height="4"/>
  <rect class="cls-6" x="100.24" y="92.26" width="4" height="4"/>
  <rect class="cls-5" x="100.24" y="88.26" width="4" height="4"/>
  <rect class="cls-5" x="100.24" y="84.26" width="4" height="4"/>
  <rect class="cls-6" x="100.24" y="80.26" width="4" height="4"/>
  <rect class="cls-6" x="100.24" y="76.26" width="4" height="4"/>
  <rect class="cls-6" x="96.24" y="112.26" width="4" height="4"/>
  <rect class="cls-6" x="96.24" y="108.26" width="4" height="4"/>
  <rect class="cls-2" x="96.24" y="104.26" width="4" height="4"/>
  <rect class="cls-6" x="96.24" y="100.26" width="4" height="4"/>
  <rect class="cls-6" x="96.24" y="96.26" width="4" height="4"/>
  <rect class="cls-6" x="96.24" y="92.26" width="4" height="4"/>
  <rect class="cls-5" x="96.24" y="88.26" width="4" height="4"/>
  <rect class="cls-5" x="96.24" y="84.26" width="4" height="4"/>
  <rect class="cls-5" x="96.24" y="80.26" width="4" height="4"/>
  <rect class="cls-6" x="96.24" y="76.26" width="4" height="4"/>
  <rect class="cls-6" x="92.24" y="112.26" width="4" height="4"/>
  <rect class="cls-2" x="92.24" y="108.26" width="4" height="4"/>
  <rect class="cls-1" x="92.24" y="104.26" width="4" height="4"/>
  <rect class="cls-6" x="92.24" y="100.26" width="4" height="4"/>
  <rect class="cls-6" x="92.24" y="96.26" width="4" height="4"/>
  <rect class="cls-6" x="92.24" y="92.26" width="4" height="4"/>
  <rect class="cls-6" x="92.24" y="88.26" width="4" height="4"/>
  <rect class="cls-5" x="92.24" y="84.26" width="4" height="4"/>
  <rect class="cls-5" x="92.24" y="80.26" width="4" height="4"/>
  <rect class="cls-6" x="92.24" y="76.26" width="4" height="4"/>
  <rect class="cls-6" x="92.24" y="72.26" width="4" height="4"/>
  <rect class="cls-6" x="92.24" y="28.26" width="4" height="4"/>
  <rect class="cls-6" x="92.24" y="24.26" width="4" height="4"/>
  <rect class="cls-6" x="88.24" y="112.26" width="4" height="4"/>
  <rect class="cls-2" x="88.24" y="108.26" width="4" height="4"/>
  <rect class="cls-1" x="88.24" y="104.26" width="4" height="4"/>
  <rect class="cls-6" x="88.24" y="100.26" width="4" height="4"/>
  <rect class="cls-6" x="88.24" y="96.26" width="4" height="4"/>
  <rect class="cls-6" x="88.24" y="92.26" width="4" height="4"/>
  <rect class="cls-6" x="88.24" y="88.26" width="4" height="4"/>
  <rect class="cls-6" x="88.24" y="84.26" width="4" height="4"/>
  <rect class="cls-5" x="88.24" y="80.26" width="4" height="4"/>
  <rect class="cls-6" x="88.24" y="76.26" width="4" height="4"/>
  <rect class="cls-6" x="88.24" y="72.26" width="4" height="4"/>
  <rect class="cls-6" x="88.24" y="32.26" width="4" height="4"/>
  <rect class="cls-1" x="88.24" y="28.26" width="4" height="4"/>
  <rect class="cls-1" x="88.24" y="24.26" width="4" height="4"/>
  <rect class="cls-6" x="88.24" y="20.26" width="4" height="4"/>
  <rect class="cls-6" x="84.24" y="112.26" width="4" height="4"/>
  <rect class="cls-2" x="84.24" y="108.26" width="4" height="4"/>
  <rect class="cls-2" x="84.24" y="104.26" width="4" height="4"/>
  <rect class="cls-1" x="84.24" y="100.26" width="4" height="4"/>
  <rect class="cls-6" x="84.24" y="96.26" width="4" height="4"/>
  <rect class="cls-6" x="84.24" y="92.26" width="4" height="4"/>
  <rect class="cls-6" x="84.24" y="88.26" width="4" height="4"/>
  <rect class="cls-6" x="84.24" y="84.26" width="4" height="4"/>
  <rect class="cls-6" x="84.24" y="80.26" width="4" height="4"/>
  <rect class="cls-6" x="84.24" y="76.26" width="4" height="4"/>
  <rect class="cls-6" x="84.24" y="32.26" width="4" height="4"/>
  <rect class="cls-1" x="84.24" y="28.26" width="4" height="4"/>
  <rect class="cls-1" x="84.24" y="24.26" width="4" height="4"/>
  <rect class="cls-1" x="84.24" y="20.26" width="4" height="4"/>
  <rect class="cls-6" x="84.24" y="16.26" width="4" height="4"/>
  <rect class="cls-6" x="80.24" y="112.26" width="4" height="4"/>
  <rect class="cls-6" x="80.24" y="108.26" width="4" height="4"/>
  <rect class="cls-2" x="80.24" y="104.26" width="4" height="4"/>
  <rect class="cls-6" x="80.24" y="100.26" width="4" height="4"/>
  <rect class="cls-6" x="80.24" y="96.26" width="4" height="4"/>
  <rect class="cls-6" x="80.24" y="92.26" width="4" height="4"/>
  <rect class="cls-6" x="80.24" y="88.26" width="4" height="4"/>
  <rect class="cls-6" x="80.24" y="84.26" width="4" height="4"/>
  <rect class="cls-6" x="80.24" y="80.26" width="4" height="4"/>
  <rect class="cls-6" x="80.24" y="32.26" width="4" height="4"/>
  <rect class="cls-1" x="80.24" y="28.26" width="4" height="4"/>
  <rect class="cls-1" x="80.24" y="24.26" width="4" height="4"/>
  <rect class="cls-1" x="80.24" y="20.26" width="4" height="4"/>
  <rect class="cls-1" x="80.24" y="16.26" width="4" height="4"/>
  <rect class="cls-5" x="80.24" y="12.26" width="4" height="4"/>
  <rect class="cls-6" x="76.24" y="108.26" width="4" height="4"/>
  <rect class="cls-2" x="76.24" y="104.26" width="4" height="4"/>
  <rect class="cls-6" x="76.24" y="100.26" width="4" height="4"/>
  <rect class="cls-6" x="76.24" y="96.26" width="4" height="4"/>
  <rect class="cls-6" x="76.24" y="92.26" width="4" height="4"/>
  <rect class="cls-2" x="76.24" y="88.26" width="4" height="4"/>
  <rect class="cls-2" x="76.24" y="84.26" width="4" height="4"/>
  <rect class="cls-1" x="76.24" y="80.26" width="4" height="4"/>
  <rect class="cls-2" x="76.24" y="76.26" width="4" height="4"/>
  <rect class="cls-2" x="76.24" y="72.26" width="4" height="4"/>
  <rect class="cls-2" x="76.24" y="68.26" width="4" height="4"/>
  <rect class="cls-1" x="76.24" y="32.26" width="4" height="4"/>
  <rect class="cls-1" x="76.24" y="28.26" width="4" height="4"/>
  <rect class="cls-4" x="76.24" y="24.26" width="4" height="4"/>
  <rect class="cls-4" x="76.24" y="20.26" width="4" height="4"/>
  <rect class="cls-1" x="76.24" y="16.26" width="4" height="4"/>
  <rect class="cls-6" x="76.24" y="12.26" width="4" height="4"/>
  <rect class="cls-6" x="72.24" y="108.26" width="4" height="4"/>
  <rect class="cls-6" x="72.24" y="104.26" width="4" height="4"/>
  <rect class="cls-6" x="72.24" y="100.26" width="4" height="4"/>
  <rect class="cls-6" x="72.24" y="96.26" width="4" height="4"/>
  <rect class="cls-2" x="72.24" y="92.26" width="4" height="4"/>
  <rect class="cls-2" x="72.24" y="88.26" width="4" height="4"/>
  <rect class="cls-1" x="72.24" y="84.26" width="4" height="4"/>
  <rect class="cls-1" x="72.24" y="80.26" width="4" height="4"/>
  <rect class="cls-2" x="72.24" y="76.26" width="4" height="4"/>
  <rect class="cls-2" x="72.24" y="72.26" width="4" height="4"/>
  <rect class="cls-2" x="72.24" y="68.26" width="4" height="4"/>
  <rect class="cls-2" x="72.24" y="64.26" width="4" height="4"/>
  <rect class="cls-6" x="72.24" y="36.26" width="4" height="4"/>
  <rect class="cls-1" x="72.24" y="32.26" width="4" height="4"/>
  <rect class="cls-1" x="72.24" y="28.26" width="4" height="4"/>
  <rect class="cls-1" x="72.24" y="24.26" width="4" height="4"/>
  <rect class="cls-1" x="72.24" y="20.26" width="4" height="4"/>
  <rect class="cls-1" x="72.24" y="16.26" width="4" height="4"/>
  <rect class="cls-6" x="72.24" y="12.26" width="4" height="4"/>
  <rect class="cls-6" x="68.24" y="108.26" width="4" height="4"/>
  <rect class="cls-6" x="68.24" y="104.26" width="4" height="4"/>
  <rect class="cls-6" x="68.24" y="100.26" width="4" height="4"/>
  <rect class="cls-6" x="68.24" y="96.26" width="4" height="4"/>
  <rect class="cls-2" x="68.24" y="92.26" width="4" height="4"/>
  <rect class="cls-1" x="68.24" y="88.26" width="4" height="4"/>
  <rect class="cls-3" x="68.24" y="84.26" width="4" height="4"/>
  <rect class="cls-3" x="68.24" y="80.26" width="4" height="4"/>
  <rect class="cls-1" x="68.24" y="76.26" width="4" height="4"/>
  <rect class="cls-2" x="68.24" y="72.26" width="4" height="4"/>
  <rect class="cls-2" x="68.24" y="68.26" width="4" height="4"/>
  <rect class="cls-2" x="68.24" y="64.26" width="4" height="4"/>
  <rect class="cls-2" x="68.24" y="60.26" width="4" height="4"/>
  <rect class="cls-2" x="68.24" y="56.26" width="4" height="4"/>
  <rect class="cls-2" x="68.24" y="52.26" width="4" height="4"/>
  <rect class="cls-6" x="68.24" y="36.26" width="4" height="4"/>
  <rect class="cls-5" x="68.24" y="32.26" width="4" height="4"/>
  <rect class="cls-5" x="68.24" y="28.26" width="4" height="4"/>
  <rect class="cls-5" x="68.24" y="24.26" width="4" height="4"/>
  <rect class="cls-5" x="68.24" y="20.26" width="4" height="4"/>
  <rect class="cls-5" x="68.24" y="16.26" width="4" height="4"/>
  <rect class="cls-2" x="68.24" y="12.26" width="4" height="4"/>
  <rect class="cls-6" x="64.24" y="108.26" width="4" height="4"/>
  <rect class="cls-6" x="64.24" y="104.26" width="4" height="4"/>
  <rect class="cls-2" x="64.24" y="100.26" width="4" height="4"/>
  <rect class="cls-1" x="64.24" y="96.26" width="4" height="4"/>
  <rect class="cls-1" x="64.24" y="92.26" width="4" height="4"/>
  <rect class="cls-3" x="64.24" y="88.26" width="4" height="4"/>
  <rect class="cls-3" x="64.24" y="84.26" width="4" height="4"/>
  <rect class="cls-3" x="64.24" y="80.26" width="4" height="4"/>
  <rect class="cls-1" x="64.24" y="76.26" width="4" height="4"/>
  <rect class="cls-1" x="64.24" y="72.26" width="4" height="4"/>
  <rect class="cls-2" x="64.24" y="68.26" width="4" height="4"/>
  <rect class="cls-2" x="64.24" y="64.26" width="4" height="4"/>
  <rect class="cls-2" x="64.24" y="60.26" width="4" height="4"/>
  <rect class="cls-5" x="64.24" y="56.26" width="4" height="4"/>
  <rect class="cls-5" x="64.24" y="52.26" width="4" height="4"/>
  <rect class="cls-1" x="64.24" y="48.26" width="4" height="4"/>
  <rect class="cls-6" x="64.24" y="44.26" width="4" height="4"/>
  <rect class="cls-5" x="64.24" y="40.26" width="4" height="4"/>
  <rect class="cls-5" x="64.24" y="36.26" width="4" height="4"/>
  <rect class="cls-5" x="64.24" y="32.26" width="4" height="4"/>
  <rect class="cls-2" x="64.24" y="28.26" width="4" height="4"/>
  <rect class="cls-2" x="64.24" y="24.26" width="4" height="4"/>
  <rect class="cls-2" x="64.24" y="20.26" width="4" height="4"/>
  <rect class="cls-5" x="64.24" y="16.26" width="4" height="4"/>
  <rect class="cls-2" x="64.24" y="12.26" width="4" height="4"/>
  <rect class="cls-6" x="60.24" y="108.26" width="4" height="4"/>
  <rect class="cls-2" x="60.24" y="104.26" width="4" height="4"/>
  <rect class="cls-1" x="60.24" y="100.26" width="4" height="4"/>
  <rect class="cls-1" x="60.24" y="96.26" width="4" height="4"/>
  <rect class="cls-3" x="60.24" y="92.26" width="4" height="4"/>
  <rect class="cls-3" x="60.24" y="88.26" width="4" height="4"/>
  <rect class="cls-1" x="60.24" y="84.26" width="4" height="4"/>
  <rect class="cls-2" x="60.24" y="80.26" width="4" height="4"/>
  <rect class="cls-2" x="60.24" y="76.26" width="4" height="4"/>
  <rect class="cls-2" x="60.24" y="72.26" width="4" height="4"/>
  <rect class="cls-2" x="60.24" y="68.26" width="4" height="4"/>
  <rect class="cls-2" x="60.24" y="64.26" width="4" height="4"/>
  <rect class="cls-2" x="60.24" y="60.26" width="4" height="4"/>
  <rect class="cls-2" x="60.24" y="56.26" width="4" height="4"/>
  <rect class="cls-5" x="60.24" y="52.26" width="4" height="4"/>
  <rect class="cls-1" x="60.24" y="48.26" width="4" height="4"/>
  <rect class="cls-6" x="60.24" y="44.26" width="4" height="4"/>
  <rect class="cls-5" x="60.24" y="40.26" width="4" height="4"/>
  <rect class="cls-5" x="60.24" y="36.26" width="4" height="4"/>
  <rect class="cls-5" x="60.24" y="32.26" width="4" height="4"/>
  <rect class="cls-5" x="60.24" y="28.26" width="4" height="4"/>
  <rect class="cls-2" x="60.24" y="24.26" width="4" height="4"/>
  <rect class="cls-2" x="60.24" y="20.26" width="4" height="4"/>
  <rect class="cls-5" x="60.24" y="16.26" width="4" height="4"/>
  <rect class="cls-2" x="60.24" y="12.26" width="4" height="4"/>
  <rect class="cls-2" x="56.24" y="108.26" width="4" height="4"/>
  <rect class="cls-1" x="56.24" y="104.26" width="4" height="4"/>
  <rect class="cls-1" x="56.24" y="100.26" width="4" height="4"/>
  <rect class="cls-3" x="56.24" y="96.26" width="4" height="4"/>
  <rect class="cls-3" x="56.24" y="92.26" width="4" height="4"/>
  <rect class="cls-2" x="56.24" y="88.26" width="4" height="4"/>
  <rect class="cls-2" x="56.24" y="84.26" width="4" height="4"/>
  <rect class="cls-6" x="56.24" y="80.26" width="4" height="4"/>
  <rect class="cls-5" x="56.24" y="72.26" width="4" height="4"/>
  <rect class="cls-5" x="56.24" y="68.26" width="4" height="4"/>
  <rect class="cls-3" x="56.24" y="64.26" width="4" height="4"/>
  <rect class="cls-2" x="56.24" y="60.26" width="4" height="4"/>
  <rect class="cls-2" x="56.24" y="56.26" width="4" height="4"/>
  <rect class="cls-2" x="56.24" y="52.26" width="4" height="4"/>
  <rect class="cls-1" x="56.24" y="48.26" width="4" height="4"/>
  <rect class="cls-1" x="56.24" y="44.26" width="4" height="4"/>
  <rect class="cls-1" x="56.24" y="40.26" width="4" height="4"/>
  <rect class="cls-5" x="56.24" y="36.26" width="4" height="4"/>
  <rect class="cls-5" x="56.24" y="32.26" width="4" height="4"/>
  <rect class="cls-5" x="56.24" y="28.26" width="4" height="4"/>
  <rect class="cls-5" x="56.24" y="24.26" width="4" height="4"/>
  <rect class="cls-5" x="56.24" y="20.26" width="4" height="4"/>
  <rect class="cls-5" x="56.24" y="16.26" width="4" height="4"/>
  <rect class="cls-2" x="56.24" y="12.26" width="4" height="4"/>
  <rect class="cls-2" x="52.24" y="108.26" width="4" height="4"/>
  <rect class="cls-1" x="52.24" y="104.26" width="4" height="4"/>
  <rect class="cls-1" x="52.24" y="100.26" width="4" height="4"/>
  <rect class="cls-3" x="52.24" y="96.26" width="4" height="4"/>
  <rect class="cls-1" x="52.24" y="92.26" width="4" height="4"/>
  <rect class="cls-6" x="52.24" y="88.26" width="4" height="4"/>
  <rect class="cls-6" x="52.24" y="84.26" width="4" height="4"/>
  <rect class="cls-6" x="52.24" y="80.26" width="4" height="4"/>
  <rect class="cls-5" x="52.24" y="68.26" width="4" height="4"/>
  <rect class="cls-3" x="52.24" y="64.26" width="4" height="4"/>
  <rect class="cls-3" x="52.24" y="60.26" width="4" height="4"/>
  <rect class="cls-3" x="52.24" y="56.26" width="4" height="4"/>
  <rect class="cls-3" x="52.24" y="52.26" width="4" height="4"/>
  <rect class="cls-7" x="52.24" y="48.26" width="4" height="4"/>
  <rect class="cls-7" x="52.24" y="44.26" width="4" height="4"/>
  <rect class="cls-7" x="52.24" y="40.26" width="4" height="4"/>
  <rect class="cls-7" x="52.24" y="36.26" width="4" height="4"/>
  <rect class="cls-7" x="52.24" y="32.26" width="4" height="4"/>
  <rect class="cls-3" x="52.24" y="28.26" width="4" height="4"/>
  <rect class="cls-5" x="52.24" y="24.26" width="4" height="4"/>
  <rect class="cls-5" x="52.24" y="20.26" width="4" height="4"/>
  <rect class="cls-5" x="52.24" y="16.26" width="4" height="4"/>
  <rect class="cls-6" x="52.24" y="12.26" width="4" height="4"/>
  <rect class="cls-2" x="48.24" y="112.26" width="4" height="4"/>
  <rect class="cls-2" x="48.24" y="108.26" width="4" height="4"/>
  <rect class="cls-1" x="48.24" y="104.26" width="4" height="4"/>
  <rect class="cls-1" x="48.24" y="100.26" width="4" height="4"/>
  <rect class="cls-1" x="48.24" y="96.26" width="4" height="4"/>
  <rect class="cls-6" x="48.24" y="92.26" width="4" height="4"/>
  <rect class="cls-6" x="48.24" y="88.26" width="4" height="4"/>
  <rect class="cls-6" x="48.24" y="84.26" width="4" height="4"/>
  <rect class="cls-1" x="48.24" y="64.26" width="4" height="4"/>
  <rect class="cls-7" x="48.24" y="60.26" width="4" height="4"/>
  <rect class="cls-3" x="48.24" y="56.26" width="4" height="4"/>
  <rect class="cls-3" x="48.24" y="52.26" width="4" height="4"/>
  <rect class="cls-7" x="48.24" y="48.26" width="4" height="4"/>
  <rect class="cls-7" x="48.24" y="44.26" width="4" height="4"/>
  <rect class="cls-7" x="48.24" y="40.26" width="4" height="4"/>
  <rect class="cls-3" x="48.24" y="36.26" width="4" height="4"/>
  <rect class="cls-3" x="48.24" y="32.26" width="4" height="4"/>
  <rect class="cls-3" x="48.24" y="28.26" width="4" height="4"/>
  <rect class="cls-3" x="48.24" y="24.26" width="4" height="4"/>
  <rect class="cls-5" x="48.24" y="20.26" width="4" height="4"/>
  <rect class="cls-6" x="48.24" y="16.26" width="4" height="4"/>
  <rect class="cls-6" x="48.24" y="12.26" width="4" height="4"/>
  <rect class="cls-2" x="44.24" y="112.26" width="4" height="4"/>
  <rect class="cls-1" x="44.24" y="108.26" width="4" height="4"/>
  <rect class="cls-1" x="44.24" y="104.26" width="4" height="4"/>
  <rect class="cls-1" x="44.24" y="100.26" width="4" height="4"/>
  <rect class="cls-1" x="44.24" y="96.26" width="4" height="4"/>
  <rect class="cls-6" x="44.24" y="92.26" width="4" height="4"/>
  <rect class="cls-6" x="44.24" y="88.26" width="4" height="4"/>
  <rect class="cls-6" x="44.24" y="84.26" width="4" height="4"/>
  <rect class="cls-5" x="44.24" y="64.26" width="4" height="4"/>
  <rect class="cls-7" x="44.24" y="60.26" width="4" height="4"/>
  <rect class="cls-3" x="44.24" y="56.26" width="4" height="4"/>
  <rect class="cls-3" x="44.24" y="52.26" width="4" height="4"/>
  <rect class="cls-7" x="44.24" y="48.26" width="4" height="4"/>
  <rect class="cls-7" x="44.24" y="44.26" width="4" height="4"/>
  <rect class="cls-7" x="44.24" y="40.26" width="4" height="4"/>
  <rect class="cls-3" x="44.24" y="36.26" width="4" height="4"/>
  <rect class="cls-3" x="44.24" y="32.26" width="4" height="4"/>
  <rect class="cls-1" x="44.24" y="28.26" width="4" height="4"/>
  <rect class="cls-1" x="44.24" y="24.26" width="4" height="4"/>
  <rect class="cls-1" x="44.24" y="20.26" width="4" height="4"/>
  <rect class="cls-7" x="44.24" y="16.26" width="4" height="4"/>
  <rect class="cls-6" x="44.24" y="12.26" width="4" height="4"/>
  <rect class="cls-2" x="40.24" y="112.26" width="4" height="4"/>
  <rect class="cls-1" x="40.24" y="108.26" width="4" height="4"/>
  <rect class="cls-1" x="40.24" y="104.26" width="4" height="4"/>
  <rect class="cls-3" x="40.24" y="100.26" width="4" height="4"/>
  <rect class="cls-1" x="40.24" y="96.26" width="4" height="4"/>
  <rect class="cls-6" x="40.24" y="92.26" width="4" height="4"/>
  <rect class="cls-6" x="40.24" y="88.26" width="4" height="4"/>
  <rect class="cls-6" x="40.24" y="84.26" width="4" height="4"/>
  <rect class="cls-5" x="40.24" y="64.26" width="4" height="4"/>
  <rect class="cls-5" x="40.24" y="60.26" width="4" height="4"/>
  <rect class="cls-7" x="40.24" y="56.26" width="4" height="4"/>
  <rect class="cls-3" x="40.24" y="52.26" width="4" height="4"/>
  <rect class="cls-3" x="40.24" y="48.26" width="4" height="4"/>
  <rect class="cls-3" x="40.24" y="44.26" width="4" height="4"/>
  <rect class="cls-3" x="40.24" y="40.26" width="4" height="4"/>
  <rect class="cls-3" x="40.24" y="36.26" width="4" height="4"/>
  <rect class="cls-3" x="40.24" y="32.26" width="4" height="4"/>
  <rect class="cls-1" x="40.24" y="28.26" width="4" height="4"/>
  <rect class="cls-5" x="40.24" y="24.26" width="4" height="4"/>
  <rect class="cls-5" x="40.24" y="20.26" width="4" height="4"/>
  <rect class="cls-7" x="40.24" y="16.26" width="4" height="4"/>
  <rect class="cls-6" x="40.24" y="12.26" width="4" height="4"/>
  <rect class="cls-2" x="36.24" y="112.26" width="4" height="4"/>
  <rect class="cls-1" x="36.24" y="108.26" width="4" height="4"/>
  <rect class="cls-1" x="36.24" y="104.26" width="4" height="4"/>
  <rect class="cls-3" x="36.24" y="100.26" width="4" height="4"/>
  <rect class="cls-2" x="36.24" y="96.26" width="4" height="4"/>
  <rect class="cls-6" x="36.24" y="92.26" width="4" height="4"/>
  <rect class="cls-6" x="36.24" y="88.26" width="4" height="4"/>
  <rect class="cls-6" x="36.24" y="84.26" width="4" height="4"/>
  <rect class="cls-6" x="36.24" y="80.26" width="4" height="4"/>
  <rect class="cls-5" x="36.24" y="60.26" width="4" height="4"/>
  <rect class="cls-5" x="36.24" y="56.26" width="4" height="4"/>
  <rect class="cls-5" x="36.24" y="52.26" width="4" height="4"/>
  <rect class="cls-1" x="36.24" y="48.26" width="4" height="4"/>
  <rect class="cls-1" x="36.24" y="44.26" width="4" height="4"/>
  <rect class="cls-1" x="36.24" y="40.26" width="4" height="4"/>
  <rect class="cls-1" x="36.24" y="36.26" width="4" height="4"/>
  <rect class="cls-1" x="36.24" y="32.26" width="4" height="4"/>
  <rect class="cls-1" x="36.24" y="28.26" width="4" height="4"/>
  <rect class="cls-5" x="36.24" y="24.26" width="4" height="4"/>
  <rect class="cls-7" x="36.24" y="20.26" width="4" height="4"/>
  <rect class="cls-7" x="36.24" y="16.26" width="4" height="4"/>
  <rect class="cls-6" x="36.24" y="12.26" width="4" height="4"/>
  <rect class="cls-2" x="32.24" y="112.26" width="4" height="4"/>
  <rect class="cls-1" x="32.24" y="108.26" width="4" height="4"/>
  <rect class="cls-3" x="32.24" y="104.26" width="4" height="4"/>
  <rect class="cls-3" x="32.24" y="100.26" width="4" height="4"/>
  <rect class="cls-2" x="32.24" y="96.26" width="4" height="4"/>
  <rect class="cls-6" x="32.24" y="92.26" width="4" height="4"/>
  <rect class="cls-6" x="32.24" y="88.26" width="4" height="4"/>
  <rect class="cls-6" x="32.24" y="84.26" width="4" height="4"/>
  <rect class="cls-6" x="32.24" y="80.26" width="4" height="4"/>
  <rect class="cls-5" x="32.24" y="56.26" width="4" height="4"/>
  <rect class="cls-5" x="32.24" y="52.26" width="4" height="4"/>
  <rect class="cls-5" x="32.24" y="48.26" width="4" height="4"/>
  <rect class="cls-5" x="32.24" y="44.26" width="4" height="4"/>
  <rect class="cls-5" x="32.24" y="40.26" width="4" height="4"/>
  <rect class="cls-5" x="32.24" y="36.26" width="4" height="4"/>
  <rect class="cls-5" x="32.24" y="32.26" width="4" height="4"/>
  <rect class="cls-5" x="32.24" y="28.26" width="4" height="4"/>
  <rect class="cls-7" x="32.24" y="24.26" width="4" height="4"/>
  <rect class="cls-6" x="32.24" y="20.26" width="4" height="4"/>
  <rect class="cls-6" x="32.24" y="16.26" width="4" height="4"/>
  <rect class="cls-2" x="28.24" y="112.26" width="4" height="4"/>
  <rect class="cls-1" x="28.24" y="108.26" width="4" height="4"/>
  <rect class="cls-1" x="28.24" y="104.26" width="4" height="4"/>
  <rect class="cls-1" x="28.24" y="100.26" width="4" height="4"/>
  <rect class="cls-2" x="28.24" y="96.26" width="4" height="4"/>
  <rect class="cls-6" x="28.24" y="92.26" width="4" height="4"/>
  <rect class="cls-6" x="28.24" y="88.26" width="4" height="4"/>
  <rect class="cls-6" x="28.24" y="84.26" width="4" height="4"/>
  <rect class="cls-6" x="28.24" y="80.26" width="4" height="4"/>
  <rect class="cls-5" x="28.24" y="52.26" width="4" height="4"/>
  <rect class="cls-5" x="28.24" y="48.26" width="4" height="4"/>
  <rect class="cls-5" x="28.24" y="44.26" width="4" height="4"/>
  <rect class="cls-5" x="28.24" y="40.26" width="4" height="4"/>
  <rect class="cls-5" x="28.24" y="36.26" width="4" height="4"/>
  <rect class="cls-6" x="28.24" y="32.26" width="4" height="4"/>
  <rect class="cls-6" x="28.24" y="28.26" width="4" height="4"/>
  <rect class="cls-6" x="28.24" y="24.26" width="4" height="4"/>
  <rect class="cls-2" x="24.24" y="112.26" width="4" height="4"/>
  <rect class="cls-2" x="24.24" y="108.26" width="4" height="4"/>
  <rect class="cls-1" x="24.24" y="104.26" width="4" height="4"/>
  <rect class="cls-1" x="24.24" y="100.26" width="4" height="4"/>
  <rect class="cls-2" x="24.24" y="96.26" width="4" height="4"/>
  <rect class="cls-6" x="24.24" y="92.26" width="4" height="4"/>
  <rect class="cls-6" x="24.24" y="88.26" width="4" height="4"/>
  <rect class="cls-6" x="24.24" y="84.26" width="4" height="4"/>
  <rect class="cls-6" x="24.24" y="80.26" width="4" height="4"/>
  <rect class="cls-2" x="20.24" y="108.26" width="4" height="4"/>
  <rect class="cls-2" x="20.24" y="104.26" width="4" height="4"/>
  <rect class="cls-2" x="20.24" y="100.26" width="4" height="4"/>
  <rect class="cls-2" x="20.24" y="96.26" width="4" height="4"/>
  <rect class="cls-2" x="16.24" y="108.26" width="4" height="4"/>
  <rect class="cls-2" x="16.24" y="104.26" width="4" height="4"/>
</svg>