<?xml version="1.0" encoding="UTF-8"?>
<svg id="Layer_1" data-name="Layer 1" xmlns="http://www.w3.org/2000/svg" xmlns:xlink="http://www.w3.org/1999/xlink" viewBox="0 0 128 128">
  <defs>
    <style>
      .cls-1 {
        fill: #323464;
      }

      .cls-1, .cls-2, .cls-3, .cls-4, .cls-5, .cls-6, .cls-7, .cls-8, .cls-9, .cls-10, .cls-11, .cls-12, .cls-13, .cls-14, .cls-15, .cls-16, .cls-17 {
        stroke-width: 0px;
      }

      .cls-2 {
        fill: #6d6e71;
      }

      .cls-3 {
        fill: #ae720c;
      }

      .cls-4 {
        fill: #7b4528;
      }

      .cls-5 {
        fill: #3b3c65;
      }

      .cls-6 {
        fill: #19163f;
      }

      .cls-18 {
        clip-path: url(#clippath-2);
      }

      .cls-7 {
        fill: #b84d30;
      }

      .cls-8 {
        fill: #5b3117;
      }

      .cls-9 {
        fill: none;
      }

      .cls-10 {
        fill: #e05029;
      }

      .cls-19 {
        clip-path: url(#clippath-1);
      }

      .cls-11 {
        fill: #b1562e;
      }

      .cls-12 {
        fill: #939598;
      }

      .cls-13 {
        fill: #231f20;
      }

      .cls-20 {
        clip-path: url(#clippath);
      }

      .cls-14 {
        fill: #bcbec0;
      }

      .cls-21 {
        clip-path: url(#clippath-3);
      }

      .cls-15 {
        fill: #925333;
      }

      .cls-16 {
        fill: #faa21b;
      }

      .cls-17 {
        fill: #f05323;
      }
    </style>
    <clipPath id="clippath">
      <rect class="cls-9" width="128" height="128"/>
    </clipPath>
    <clipPath id="clippath-1">
      <rect class="cls-9" width="128" height="128"/>
    </clipPath>
    <clipPath id="clippath-2">
      <rect class="cls-9" x="24" width="88" height="128"/>
    </clipPath>
    <clipPath id="clippath-3">
      <rect class="cls-9" x="24" width="88" height="128"/>
    </clipPath>
  </defs>
  <g class="cls-20">
    <g class="cls-19">
      <g class="cls-18">
        <g class="cls-21">
          <rect class="cls-14" x="108" y="124" width="4" height="4"/>
          <rect class="cls-14" x="108" y="120" width="4" height="4"/>
          <rect class="cls-17" x="108" y="64" width="4" height="4"/>
          <rect class="cls-14" x="104" y="124" width="4" height="4"/>
          <rect class="cls-14" x="104" y="120" width="4" height="4"/>
          <rect class="cls-2" x="104" y="116" width="4" height="4"/>
          <rect class="cls-14" x="104" y="112" width="4" height="4"/>
          <rect class="cls-14" x="104" y="108" width="4" height="4"/>
          <rect class="cls-3" x="104" y="104" width="4" height="4"/>
          <rect class="cls-17" x="104" y="64" width="4" height="4"/>
          <rect class="cls-7" x="104" y="60" width="4" height="4"/>
          <rect class="cls-7" x="104" y="56" width="4" height="4"/>
          <rect class="cls-14" x="100" y="124" width="4" height="4"/>
          <rect class="cls-14" x="100" y="120" width="4" height="4"/>
          <rect class="cls-2" x="100" y="116" width="4" height="4"/>
          <rect class="cls-2" x="100" y="112" width="4" height="4"/>
          <rect class="cls-14" x="100" y="108" width="4" height="4"/>
          <rect class="cls-14" x="100" y="104" width="4" height="4"/>
          <rect class="cls-16" x="100" y="100" width="4" height="4"/>
          <rect class="cls-16" x="100" y="96" width="4" height="4"/>
          <rect class="cls-17" x="100" y="64" width="4" height="4"/>
          <rect class="cls-11" x="100" y="60" width="4" height="4"/>
          <rect class="cls-11" x="100" y="56" width="4" height="4"/>
          <rect class="cls-7" x="100" y="52" width="4" height="4"/>
          <rect class="cls-14" x="96" y="124" width="4" height="4"/>
          <rect class="cls-2" x="96" y="120" width="4" height="4"/>
          <rect class="cls-2" x="96" y="116" width="4" height="4"/>
          <rect class="cls-2" x="96" y="112" width="4" height="4"/>
          <rect class="cls-14" x="96" y="108" width="4" height="4"/>
          <rect class="cls-3" x="96" y="104" width="4" height="4"/>
          <rect class="cls-16" x="96" y="100" width="4" height="4"/>
          <rect class="cls-14" x="96" y="96" width="4" height="4"/>
          <rect class="cls-14" x="96" y="92" width="4" height="4"/>
          <rect class="cls-17" x="96" y="64" width="4" height="4"/>
          <rect class="cls-17" x="96" y="60" width="4" height="4"/>
          <rect class="cls-7" x="96" y="56" width="4" height="4"/>
          <rect class="cls-7" x="96" y="52" width="4" height="4"/>
          <rect class="cls-7" x="96" y="48" width="4" height="4"/>
          <rect class="cls-2" x="92" y="124" width="4" height="4"/>
          <rect class="cls-2" x="92" y="120" width="4" height="4"/>
          <rect class="cls-2" x="92" y="116" width="4" height="4"/>
          <rect class="cls-2" x="92" y="112" width="4" height="4"/>
          <rect class="cls-14" x="92" y="108" width="4" height="4"/>
          <rect class="cls-3" x="92" y="104" width="4" height="4"/>
          <rect class="cls-16" x="92" y="100" width="4" height="4"/>
          <rect class="cls-14" x="92" y="96" width="4" height="4"/>
          <rect class="cls-14" x="92" y="92" width="4" height="4"/>
          <rect class="cls-14" x="92" y="88" width="4" height="4"/>
          <rect class="cls-14" x="92" y="84" width="4" height="4"/>
          <rect class="cls-17" x="92" y="60" width="4" height="4"/>
          <rect class="cls-7" x="92" y="56" width="4" height="4"/>
          <rect class="cls-15" x="92" y="52" width="4" height="4"/>
          <rect class="cls-15" x="92" y="48" width="4" height="4"/>
          <rect class="cls-7" x="92" y="44" width="4" height="4"/>
          <rect class="cls-11" x="92" y="40" width="4" height="4"/>
          <rect class="cls-15" x="92" y="16" width="4" height="4"/>
          <rect class="cls-2" x="88" y="124" width="4" height="4"/>
          <rect class="cls-2" x="88" y="120" width="4" height="4"/>
          <rect class="cls-2" x="88" y="116" width="4" height="4"/>
          <rect class="cls-2" x="88" y="112" width="4" height="4"/>
          <rect class="cls-14" x="88" y="108" width="4" height="4"/>
          <rect class="cls-3" x="88" y="104" width="4" height="4"/>
          <rect class="cls-16" x="88" y="100" width="4" height="4"/>
          <rect class="cls-2" x="88" y="96" width="4" height="4"/>
          <rect class="cls-2" x="88" y="92" width="4" height="4"/>
          <rect class="cls-2" x="88" y="88" width="4" height="4"/>
          <rect class="cls-14" x="88" y="84" width="4" height="4"/>
          <rect class="cls-14" x="88" y="80" width="4" height="4"/>
          <rect class="cls-8" x="88" y="60" width="4" height="4"/>
          <rect class="cls-17" x="88" y="56" width="4" height="4"/>
          <rect class="cls-15" x="88" y="52" width="4" height="4"/>
          <rect class="cls-15" x="88" y="48" width="4" height="4"/>
          <rect class="cls-4" x="88" y="44" width="4" height="4"/>
          <rect class="cls-11" x="88" y="40" width="4" height="4"/>
          <rect class="cls-15" x="88" y="16" width="4" height="4"/>
          <rect class="cls-2" x="84" y="120" width="4" height="4"/>
          <rect class="cls-3" x="84" y="116" width="4" height="4"/>
          <rect class="cls-14" x="84" y="112" width="4" height="4"/>
          <rect class="cls-3" x="84" y="108" width="4" height="4"/>
          <rect class="cls-16" x="84" y="104" width="4" height="4"/>
          <rect class="cls-2" x="84" y="100" width="4" height="4"/>
          <rect class="cls-2" x="84" y="96" width="4" height="4"/>
          <rect class="cls-2" x="84" y="92" width="4" height="4"/>
          <rect class="cls-2" x="84" y="88" width="4" height="4"/>
          <rect class="cls-2" x="84" y="84" width="4" height="4"/>
          <rect class="cls-14" x="84" y="80" width="4" height="4"/>
          <rect class="cls-14" x="84" y="76" width="4" height="4"/>
          <rect class="cls-6" x="84" y="64" width="4" height="4"/>
          <rect class="cls-8" x="84" y="60" width="4" height="4"/>
          <rect class="cls-17" x="84" y="56" width="4" height="4"/>
          <rect class="cls-15" x="84" y="52" width="4" height="4"/>
          <rect class="cls-15" x="84" y="48" width="4" height="4"/>
          <rect class="cls-15" x="84" y="44" width="4" height="4"/>
          <rect class="cls-15" x="84" y="40" width="4" height="4"/>
          <rect class="cls-7" x="84" y="36" width="4" height="4"/>
          <rect class="cls-11" x="84" y="32" width="4" height="4"/>
          <rect class="cls-15" x="84" y="16" width="4" height="4"/>
          <rect class="cls-15" x="84" y="12" width="4" height="4"/>
          <rect class="cls-2" x="80" y="120" width="4" height="4"/>
          <rect class="cls-16" x="80" y="116" width="4" height="4"/>
          <rect class="cls-16" x="80" y="112" width="4" height="4"/>
          <rect class="cls-16" x="80" y="108" width="4" height="4"/>
          <rect class="cls-16" x="80" y="104" width="4" height="4"/>
          <rect class="cls-2" x="80" y="100" width="4" height="4"/>
          <rect class="cls-2" x="80" y="96" width="4" height="4"/>
          <rect class="cls-2" x="80" y="92" width="4" height="4"/>
          <rect class="cls-2" x="80" y="88" width="4" height="4"/>
          <rect class="cls-2" x="80" y="84" width="4" height="4"/>
          <rect class="cls-2" x="80" y="80" width="4" height="4"/>
          <rect class="cls-14" x="80" y="76" width="4" height="4"/>
          <rect class="cls-6" x="80" y="68" width="4" height="4"/>
          <rect class="cls-6" x="80" y="64" width="4" height="4"/>
          <rect class="cls-6" x="80" y="60" width="4" height="4"/>
          <rect class="cls-8" x="80" y="56" width="4" height="4"/>
          <rect class="cls-17" x="80" y="52" width="4" height="4"/>
          <rect class="cls-4" x="80" y="48" width="4" height="4"/>
          <rect class="cls-15" x="80" y="44" width="4" height="4"/>
          <rect class="cls-15" x="80" y="40" width="4" height="4"/>
          <rect class="cls-7" x="80" y="36" width="4" height="4"/>
          <rect class="cls-7" x="80" y="32" width="4" height="4"/>
          <rect class="cls-15" x="80" y="16" width="4" height="4"/>
          <rect class="cls-10" x="80" y="12" width="4" height="4"/>
          <rect class="cls-2" x="76" y="116" width="4" height="4"/>
          <rect class="cls-16" x="76" y="112" width="4" height="4"/>
          <rect class="cls-16" x="76" y="108" width="4" height="4"/>
          <rect class="cls-2" x="76" y="104" width="4" height="4"/>
          <rect class="cls-2" x="76" y="100" width="4" height="4"/>
          <rect class="cls-2" x="76" y="96" width="4" height="4"/>
          <rect class="cls-2" x="76" y="92" width="4" height="4"/>
          <rect class="cls-2" x="76" y="88" width="4" height="4"/>
          <rect class="cls-2" x="76" y="84" width="4" height="4"/>
          <rect class="cls-2" x="76" y="80" width="4" height="4"/>
          <rect class="cls-2" x="76" y="76" width="4" height="4"/>
          <rect class="cls-5" x="76" y="72" width="4" height="4"/>
          <rect class="cls-6" x="76" y="68" width="4" height="4"/>
          <rect class="cls-6" x="76" y="64" width="4" height="4"/>
          <rect class="cls-6" x="76" y="60" width="4" height="4"/>
          <rect class="cls-6" x="76" y="56" width="4" height="4"/>
          <rect class="cls-17" x="76" y="52" width="4" height="4"/>
          <rect class="cls-17" x="76" y="48" width="4" height="4"/>
          <rect class="cls-15" x="76" y="44" width="4" height="4"/>
          <rect class="cls-4" x="76" y="40" width="4" height="4"/>
          <rect class="cls-4" x="76" y="36" width="4" height="4"/>
          <rect class="cls-15" x="76" y="32" width="4" height="4"/>
          <rect class="cls-7" x="76" y="28" width="4" height="4"/>
          <rect class="cls-7" x="76" y="24" width="4" height="4"/>
          <rect class="cls-10" x="76" y="20" width="4" height="4"/>
          <rect class="cls-15" x="76" y="16" width="4" height="4"/>
          <rect class="cls-10" x="76" y="12" width="4" height="4"/>
          <rect class="cls-11" x="76" y="8" width="4" height="4"/>
          <rect class="cls-2" x="72" y="96" width="4" height="4"/>
          <rect class="cls-2" x="72" y="92" width="4" height="4"/>
          <rect class="cls-2" x="72" y="88" width="4" height="4"/>
          <rect class="cls-2" x="72" y="84" width="4" height="4"/>
          <rect class="cls-2" x="72" y="80" width="4" height="4"/>
          <rect class="cls-2" x="72" y="76" width="4" height="4"/>
          <rect class="cls-2" x="72" y="72" width="4" height="4"/>
          <rect class="cls-5" x="72" y="68" width="4" height="4"/>
          <rect class="cls-16" x="72" y="64" width="4" height="4"/>
          <rect class="cls-16" x="72" y="60" width="4" height="4"/>
          <rect class="cls-16" x="72" y="56" width="4" height="4"/>
          <rect class="cls-6" x="72" y="52" width="4" height="4"/>
          <rect class="cls-6" x="72" y="48" width="4" height="4"/>
          <rect class="cls-17" x="72" y="44" width="4" height="4"/>
          <rect class="cls-15" x="72" y="40" width="4" height="4"/>
          <rect class="cls-4" x="72" y="36" width="4" height="4"/>
          <rect class="cls-15" x="72" y="32" width="4" height="4"/>
          <rect class="cls-15" x="72" y="28" width="4" height="4"/>
          <rect class="cls-10" x="72" y="24" width="4" height="4"/>
          <rect class="cls-10" x="72" y="20" width="4" height="4"/>
          <rect class="cls-6" x="72" y="16" width="4" height="4"/>
          <rect class="cls-4" x="72" y="12" width="4" height="4"/>
          <rect class="cls-11" x="72" y="8" width="4" height="4"/>
          <rect class="cls-7" x="72" y="4" width="4" height="4"/>
          <rect class="cls-17" x="72" width="4" height="4"/>
          <rect class="cls-2" x="68" y="84" width="4" height="4"/>
          <rect class="cls-2" x="68" y="80" width="4" height="4"/>
          <rect class="cls-5" x="68" y="76" width="4" height="4"/>
          <rect class="cls-5" x="68" y="72" width="4" height="4"/>
          <rect class="cls-5" x="68" y="68" width="4" height="4"/>
          <rect class="cls-5" x="68" y="64" width="4" height="4"/>
          <rect class="cls-16" x="68" y="60" width="4" height="4"/>
          <rect class="cls-5" x="68" y="56" width="4" height="4"/>
          <rect class="cls-12" x="68" y="52" width="4" height="4"/>
          <rect class="cls-6" x="68" y="48" width="4" height="4"/>
          <rect class="cls-17" x="68" y="44" width="4" height="4"/>
          <rect class="cls-15" x="68" y="40" width="4" height="4"/>
          <rect class="cls-15" x="68" y="36" width="4" height="4"/>
          <rect class="cls-15" x="68" y="32" width="4" height="4"/>
          <rect class="cls-15" x="68" y="28" width="4" height="4"/>
          <rect class="cls-15" x="68" y="24" width="4" height="4"/>
          <rect class="cls-10" x="68" y="20" width="4" height="4"/>
          <rect class="cls-13" x="68" y="16" width="4" height="4"/>
          <rect class="cls-4" x="68" y="12" width="4" height="4"/>
          <rect class="cls-16" x="68" y="8" width="4" height="4"/>
          <rect class="cls-7" x="68" y="4" width="4" height="4"/>
          <rect class="cls-17" x="68" width="4" height="4"/>
          <rect class="cls-2" x="64" y="112" width="4" height="4"/>
          <rect class="cls-14" x="64" y="108" width="4" height="4"/>
          <rect class="cls-14" x="64" y="104" width="4" height="4"/>
          <rect class="cls-3" x="64" y="100" width="4" height="4"/>
          <rect class="cls-3" x="64" y="96" width="4" height="4"/>
          <rect class="cls-14" x="64" y="92" width="4" height="4"/>
          <rect class="cls-14" x="64" y="88" width="4" height="4"/>
          <rect class="cls-14" x="64" y="84" width="4" height="4"/>
          <rect class="cls-5" x="64" y="68" width="4" height="4"/>
          <rect class="cls-5" x="64" y="64" width="4" height="4"/>
          <rect class="cls-16" x="64" y="60" width="4" height="4"/>
          <rect class="cls-12" x="64" y="56" width="4" height="4"/>
          <rect class="cls-12" x="64" y="52" width="4" height="4"/>
          <rect class="cls-5" x="64" y="48" width="4" height="4"/>
          <rect class="cls-6" x="64" y="44" width="4" height="4"/>
          <rect class="cls-17" x="64" y="40" width="4" height="4"/>
          <rect class="cls-15" x="64" y="36" width="4" height="4"/>
          <rect class="cls-15" x="64" y="32" width="4" height="4"/>
          <rect class="cls-15" x="64" y="28" width="4" height="4"/>
          <rect class="cls-10" x="64" y="24" width="4" height="4"/>
          <rect class="cls-6" x="64" y="20" width="4" height="4"/>
          <rect class="cls-6" x="64" y="16" width="4" height="4"/>
          <rect class="cls-4" x="64" y="12" width="4" height="4"/>
          <rect class="cls-16" x="64" y="8" width="4" height="4"/>
          <rect class="cls-7" x="64" y="4" width="4" height="4"/>
          <rect class="cls-17" x="64" width="4" height="4"/>
          <rect class="cls-14" x="60" y="112" width="4" height="4"/>
          <rect class="cls-14" x="60" y="108" width="4" height="4"/>
          <rect class="cls-3" x="60" y="104" width="4" height="4"/>
          <rect class="cls-14" x="60" y="100" width="4" height="4"/>
          <rect class="cls-14" x="60" y="96" width="4" height="4"/>
          <rect class="cls-14" x="60" y="92" width="4" height="4"/>
          <rect class="cls-14" x="60" y="88" width="4" height="4"/>
          <rect class="cls-14" x="60" y="84" width="4" height="4"/>
          <rect class="cls-14" x="60" y="80" width="4" height="4"/>
          <rect class="cls-5" x="60" y="76" width="4" height="4"/>
          <rect class="cls-5" x="60" y="72" width="4" height="4"/>
          <rect class="cls-5" x="60" y="68" width="4" height="4"/>
          <rect class="cls-16" x="60" y="64" width="4" height="4"/>
          <rect class="cls-16" x="60" y="60" width="4" height="4"/>
          <rect class="cls-12" x="60" y="56" width="4" height="4"/>
          <rect class="cls-12" x="60" y="52" width="4" height="4"/>
          <rect class="cls-5" x="60" y="48" width="4" height="4"/>
          <rect class="cls-5" x="60" y="44" width="4" height="4"/>
          <rect class="cls-6" x="60" y="40" width="4" height="4"/>
          <rect class="cls-17" x="60" y="36" width="4" height="4"/>
          <rect class="cls-15" x="60" y="32" width="4" height="4"/>
          <rect class="cls-15" x="60" y="28" width="4" height="4"/>
          <rect class="cls-10" x="60" y="24" width="4" height="4"/>
          <rect class="cls-10" x="60" y="20" width="4" height="4"/>
          <rect class="cls-6" x="60" y="16" width="4" height="4"/>
          <rect class="cls-4" x="60" y="12" width="4" height="4"/>
          <rect class="cls-10" x="60" y="8" width="4" height="4"/>
          <rect class="cls-7" x="60" y="4" width="4" height="4"/>
          <rect class="cls-7" x="60" width="4" height="4"/>
          <rect class="cls-3" x="56" y="112" width="4" height="4"/>
          <rect class="cls-3" x="56" y="108" width="4" height="4"/>
          <rect class="cls-3" x="56" y="104" width="4" height="4"/>
          <rect class="cls-14" x="56" y="100" width="4" height="4"/>
          <rect class="cls-14" x="56" y="96" width="4" height="4"/>
          <rect class="cls-2" x="56" y="92" width="4" height="4"/>
          <rect class="cls-2" x="56" y="88" width="4" height="4"/>
          <rect class="cls-2" x="56" y="84" width="4" height="4"/>
          <rect class="cls-2" x="56" y="80" width="4" height="4"/>
          <rect class="cls-5" x="56" y="76" width="4" height="4"/>
          <rect class="cls-5" x="56" y="72" width="4" height="4"/>
          <rect class="cls-5" x="56" y="68" width="4" height="4"/>
          <rect class="cls-5" x="56" y="64" width="4" height="4"/>
          <rect class="cls-16" x="56" y="60" width="4" height="4"/>
          <rect class="cls-16" x="56" y="56" width="4" height="4"/>
          <rect class="cls-12" x="56" y="52" width="4" height="4"/>
          <rect class="cls-5" x="56" y="48" width="4" height="4"/>
          <rect class="cls-5" x="56" y="44" width="4" height="4"/>
          <rect class="cls-5" x="56" y="40" width="4" height="4"/>
          <rect class="cls-6" x="56" y="36" width="4" height="4"/>
          <rect class="cls-17" x="56" y="32" width="4" height="4"/>
          <rect class="cls-15" x="56" y="28" width="4" height="4"/>
          <rect class="cls-7" x="56" y="24" width="4" height="4"/>
          <rect class="cls-10" x="56" y="20" width="4" height="4"/>
          <rect class="cls-6" x="56" y="16" width="4" height="4"/>
          <rect class="cls-15" x="56" y="12" width="4" height="4"/>
          <rect class="cls-4" x="56" y="8" width="4" height="4"/>
          <rect class="cls-10" x="56" y="4" width="4" height="4"/>
          <rect class="cls-14" x="52" y="112" width="4" height="4"/>
          <rect class="cls-3" x="52" y="108" width="4" height="4"/>
          <rect class="cls-14" x="52" y="104" width="4" height="4"/>
          <rect class="cls-2" x="52" y="100" width="4" height="4"/>
          <rect class="cls-2" x="52" y="96" width="4" height="4"/>
          <rect class="cls-2" x="52" y="92" width="4" height="4"/>
          <rect class="cls-2" x="52" y="88" width="4" height="4"/>
          <rect class="cls-2" x="52" y="84" width="4" height="4"/>
          <rect class="cls-2" x="52" y="80" width="4" height="4"/>
          <rect class="cls-5" x="52" y="76" width="4" height="4"/>
          <rect class="cls-5" x="52" y="72" width="4" height="4"/>
          <rect class="cls-5" x="52" y="68" width="4" height="4"/>
          <rect class="cls-5" x="52" y="64" width="4" height="4"/>
          <rect class="cls-1" x="52" y="60" width="4" height="4"/>
          <rect class="cls-16" x="52" y="56" width="4" height="4"/>
          <rect class="cls-16" x="52" y="52" width="4" height="4"/>
          <rect class="cls-8" x="52" y="48" width="4" height="4"/>
          <rect class="cls-8" x="52" y="44" width="4" height="4"/>
          <rect class="cls-6" x="52" y="40" width="4" height="4"/>
          <rect class="cls-6" x="52" y="36" width="4" height="4"/>
          <rect class="cls-17" x="52" y="32" width="4" height="4"/>
          <rect class="cls-17" x="52" y="28" width="4" height="4"/>
          <rect class="cls-7" x="52" y="24" width="4" height="4"/>
          <rect class="cls-7" x="52" y="20" width="4" height="4"/>
          <rect class="cls-10" x="52" y="16" width="4" height="4"/>
          <rect class="cls-15" x="52" y="8" width="4" height="4"/>
          <rect class="cls-15" x="52" y="4" width="4" height="4"/>
          <rect class="cls-2" x="48" y="116" width="4" height="4"/>
          <rect class="cls-14" x="48" y="112" width="4" height="4"/>
          <rect class="cls-3" x="48" y="108" width="4" height="4"/>
          <rect class="cls-3" x="48" y="104" width="4" height="4"/>
          <rect class="cls-2" x="48" y="100" width="4" height="4"/>
          <rect class="cls-2" x="48" y="96" width="4" height="4"/>
          <rect class="cls-2" x="48" y="92" width="4" height="4"/>
          <rect class="cls-2" x="48" y="88" width="4" height="4"/>
          <rect class="cls-2" x="48" y="84" width="4" height="4"/>
          <rect class="cls-2" x="48" y="80" width="4" height="4"/>
          <rect class="cls-2" x="48" y="76" width="4" height="4"/>
          <rect class="cls-8" x="48" y="48" width="4" height="4"/>
          <rect class="cls-8" x="48" y="44" width="4" height="4"/>
          <rect class="cls-8" x="48" y="40" width="4" height="4"/>
          <rect class="cls-5" x="48" y="36" width="4" height="4"/>
          <rect class="cls-5" x="48" y="32" width="4" height="4"/>
          <rect class="cls-7" x="48" y="28" width="4" height="4"/>
          <rect class="cls-15" x="48" y="24" width="4" height="4"/>
          <rect class="cls-15" x="48" y="8" width="4" height="4"/>
          <rect class="cls-15" x="48" y="4" width="4" height="4"/>
          <rect class="cls-2" x="44" y="116" width="4" height="4"/>
          <rect class="cls-14" x="44" y="112" width="4" height="4"/>
          <rect class="cls-14" x="44" y="108" width="4" height="4"/>
          <rect class="cls-3" x="44" y="104" width="4" height="4"/>
          <rect class="cls-16" x="44" y="100" width="4" height="4"/>
          <rect class="cls-2" x="44" y="96" width="4" height="4"/>
          <rect class="cls-2" x="44" y="92" width="4" height="4"/>
          <rect class="cls-2" x="44" y="88" width="4" height="4"/>
          <rect class="cls-2" x="44" y="84" width="4" height="4"/>
          <rect class="cls-8" x="44" y="52" width="4" height="4"/>
          <rect class="cls-8" x="44" y="48" width="4" height="4"/>
          <rect class="cls-8" x="44" y="44" width="4" height="4"/>
          <rect class="cls-5" x="44" y="40" width="4" height="4"/>
          <rect class="cls-5" x="44" y="36" width="4" height="4"/>
          <rect class="cls-11" x="44" y="32" width="4" height="4"/>
          <rect class="cls-15" x="44" y="28" width="4" height="4"/>
          <rect class="cls-15" x="44" y="8" width="4" height="4"/>
          <rect class="cls-15" x="44" y="4" width="4" height="4"/>
          <rect class="cls-2" x="40" y="116" width="4" height="4"/>
          <rect class="cls-2" x="40" y="112" width="4" height="4"/>
          <rect class="cls-2" x="40" y="108" width="4" height="4"/>
          <rect class="cls-2" x="40" y="104" width="4" height="4"/>
          <rect class="cls-16" x="40" y="100" width="4" height="4"/>
          <rect class="cls-16" x="40" y="96" width="4" height="4"/>
          <rect class="cls-8" x="40" y="56" width="4" height="4"/>
          <rect class="cls-8" x="40" y="52" width="4" height="4"/>
          <rect class="cls-8" x="40" y="48" width="4" height="4"/>
          <rect class="cls-8" x="40" y="44" width="4" height="4"/>
          <rect class="cls-11" x="40" y="40" width="4" height="4"/>
          <rect class="cls-11" x="40" y="36" width="4" height="4"/>
          <rect class="cls-11" x="40" y="32" width="4" height="4"/>
          <rect class="cls-2" x="36" y="116" width="4" height="4"/>
          <rect class="cls-2" x="36" y="112" width="4" height="4"/>
          <rect class="cls-2" x="36" y="108" width="4" height="4"/>
          <rect class="cls-2" x="36" y="104" width="4" height="4"/>
          <rect class="cls-16" x="36" y="100" width="4" height="4"/>
          <rect class="cls-16" x="36" y="96" width="4" height="4"/>
          <rect class="cls-8" x="36" y="56" width="4" height="4"/>
          <rect class="cls-4" x="36" y="52" width="4" height="4"/>
          <rect class="cls-4" x="36" y="48" width="4" height="4"/>
          <rect class="cls-4" x="36" y="44" width="4" height="4"/>
          <rect class="cls-7" x="36" y="40" width="4" height="4"/>
          <rect class="cls-2" x="32" y="116" width="4" height="4"/>
          <rect class="cls-14" x="32" y="112" width="4" height="4"/>
          <rect class="cls-2" x="32" y="108" width="4" height="4"/>
          <rect class="cls-7" x="32" y="60" width="4" height="4"/>
          <rect class="cls-7" x="32" y="56" width="4" height="4"/>
          <rect class="cls-7" x="32" y="52" width="4" height="4"/>
          <rect class="cls-7" x="32" y="48" width="4" height="4"/>
          <rect class="cls-7" x="32" y="44" width="4" height="4"/>
          <rect class="cls-14" x="28" y="112" width="4" height="4"/>
          <rect class="cls-14" x="28" y="108" width="4" height="4"/>
          <rect class="cls-7" x="28" y="60" width="4" height="4"/>
          <rect class="cls-7" x="28" y="56" width="4" height="4"/>
          <rect class="cls-7" x="28" y="52" width="4" height="4"/>
          <rect class="cls-17" x="24" y="60" width="4" height="4"/>
          <rect class="cls-17" x="24" y="56" width="4" height="4"/>
        </g>
      </g>
    </g>
  </g>
</svg>