<?xml version="1.0" encoding="UTF-8"?>
<svg id="Layer_1" data-name="Layer 1" xmlns="http://www.w3.org/2000/svg" xmlns:xlink="http://www.w3.org/1999/xlink" viewBox="0 0 128 128">
  <defs>
    <style>
      .cls-1 {
        fill: #6d6e71;
      }

      .cls-1, .cls-2, .cls-3, .cls-4, .cls-5, .cls-6, .cls-7, .cls-8, .cls-9, .cls-10, .cls-11, .cls-12 {
        stroke-width: 0px;
      }

      .cls-2 {
        fill: #ae720c;
      }

      .cls-3 {
        fill: #7b4528;
      }

      .cls-4 {
        fill: #19163f;
      }

      .cls-13 {
        clip-path: url(#clippath-2);
      }

      .cls-5 {
        fill: #b84d30;
      }

      .cls-6 {
        fill: none;
      }

      .cls-7 {
        fill: #e05029;
      }

      .cls-14 {
        clip-path: url(#clippath-1);
      }

      .cls-8 {
        fill: #b1562e;
      }

      .cls-15 {
        clip-path: url(#clippath);
      }

      .cls-9 {
        fill: #bcbec0;
      }

      .cls-16 {
        clip-path: url(#clippath-3);
      }

      .cls-10 {
        fill: #925333;
      }

      .cls-11 {
        fill: #faa21b;
      }

      .cls-12 {
        fill: #f05323;
      }
    </style>
    <clipPath id="clippath">
      <rect class="cls-6" width="128" height="128"/>
    </clipPath>
    <clipPath id="clippath-1">
      <rect class="cls-6" width="128" height="128"/>
    </clipPath>
    <clipPath id="clippath-2">
      <rect class="cls-6" x="16" width="88" height="128"/>
    </clipPath>
    <clipPath id="clippath-3">
      <rect class="cls-6" x="16" width="88" height="128"/>
    </clipPath>
  </defs>
  <g class="cls-15">
    <g class="cls-14">
      <g class="cls-13">
        <g class="cls-16">
          <rect class="cls-1" x="16" y="124" width="4" height="4"/>
          <rect class="cls-1" x="16" y="120" width="4" height="4"/>
          <rect class="cls-12" x="16" y="64" width="4" height="4"/>
          <rect class="cls-1" x="20" y="124" width="4" height="4"/>
          <rect class="cls-1" x="20" y="120" width="4" height="4"/>
          <rect class="cls-1" x="20" y="116" width="4" height="4"/>
          <rect class="cls-9" x="20" y="112" width="4" height="4"/>
          <rect class="cls-2" x="20" y="108" width="4" height="4"/>
          <rect class="cls-11" x="20" y="104" width="4" height="4"/>
          <rect class="cls-12" x="20" y="64" width="4" height="4"/>
          <rect class="cls-5" x="20" y="60" width="4" height="4"/>
          <rect class="cls-5" x="20" y="56" width="4" height="4"/>
          <rect class="cls-1" x="24" y="124" width="4" height="4"/>
          <rect class="cls-1" x="24" y="120" width="4" height="4"/>
          <rect class="cls-1" x="24" y="116" width="4" height="4"/>
          <rect class="cls-2" x="24" y="112" width="4" height="4"/>
          <rect class="cls-11" x="24" y="108" width="4" height="4"/>
          <rect class="cls-9" x="24" y="104" width="4" height="4"/>
          <rect class="cls-9" x="24" y="100" width="4" height="4"/>
          <rect class="cls-9" x="24" y="96" width="4" height="4"/>
          <rect class="cls-3" x="24" y="64" width="4" height="4"/>
          <rect class="cls-8" x="24" y="60" width="4" height="4"/>
          <rect class="cls-8" x="24" y="56" width="4" height="4"/>
          <rect class="cls-5" x="24" y="52" width="4" height="4"/>
          <rect class="cls-1" x="28" y="124" width="4" height="4"/>
          <rect class="cls-1" x="28" y="120" width="4" height="4"/>
          <rect class="cls-2" x="28" y="116" width="4" height="4"/>
          <rect class="cls-11" x="28" y="112" width="4" height="4"/>
          <rect class="cls-11" x="28" y="108" width="4" height="4"/>
          <rect class="cls-9" x="28" y="104" width="4" height="4"/>
          <rect class="cls-9" x="28" y="100" width="4" height="4"/>
          <rect class="cls-9" x="28" y="96" width="4" height="4"/>
          <rect class="cls-9" x="28" y="92" width="4" height="4"/>
          <rect class="cls-3" x="28" y="68" width="4" height="4"/>
          <rect class="cls-3" x="28" y="64" width="4" height="4"/>
          <rect class="cls-3" x="28" y="60" width="4" height="4"/>
          <rect class="cls-10" x="28" y="56" width="4" height="4"/>
          <rect class="cls-10" x="28" y="52" width="4" height="4"/>
          <rect class="cls-5" x="28" y="48" width="4" height="4"/>
          <rect class="cls-1" x="32" y="124" width="4" height="4"/>
          <rect class="cls-2" x="32" y="120" width="4" height="4"/>
          <rect class="cls-11" x="32" y="116" width="4" height="4"/>
          <rect class="cls-1" x="32" y="112" width="4" height="4"/>
          <rect class="cls-1" x="32" y="108" width="4" height="4"/>
          <rect class="cls-1" x="32" y="104" width="4" height="4"/>
          <rect class="cls-9" x="32" y="100" width="4" height="4"/>
          <rect class="cls-9" x="32" y="96" width="4" height="4"/>
          <rect class="cls-9" x="32" y="92" width="4" height="4"/>
          <rect class="cls-9" x="32" y="88" width="4" height="4"/>
          <rect class="cls-9" x="32" y="84" width="4" height="4"/>
          <rect class="cls-3" x="32" y="68" width="4" height="4"/>
          <rect class="cls-3" x="32" y="64" width="4" height="4"/>
          <rect class="cls-5" x="32" y="60" width="4" height="4"/>
          <rect class="cls-10" x="32" y="56" width="4" height="4"/>
          <rect class="cls-10" x="32" y="52" width="4" height="4"/>
          <rect class="cls-10" x="32" y="48" width="4" height="4"/>
          <rect class="cls-5" x="32" y="44" width="4" height="4"/>
          <rect class="cls-8" x="32" y="40" width="4" height="4"/>
          <rect class="cls-10" x="32" y="16" width="4" height="4"/>
          <rect class="cls-1" x="36" y="124" width="4" height="4"/>
          <rect class="cls-2" x="36" y="120" width="4" height="4"/>
          <rect class="cls-11" x="36" y="116" width="4" height="4"/>
          <rect class="cls-1" x="36" y="112" width="4" height="4"/>
          <rect class="cls-1" x="36" y="108" width="4" height="4"/>
          <rect class="cls-1" x="36" y="104" width="4" height="4"/>
          <rect class="cls-1" x="36" y="100" width="4" height="4"/>
          <rect class="cls-1" x="36" y="96" width="4" height="4"/>
          <rect class="cls-1" x="36" y="92" width="4" height="4"/>
          <rect class="cls-1" x="36" y="88" width="4" height="4"/>
          <rect class="cls-9" x="36" y="84" width="4" height="4"/>
          <rect class="cls-9" x="36" y="80" width="4" height="4"/>
          <rect class="cls-3" x="36" y="68" width="4" height="4"/>
          <rect class="cls-3" x="36" y="64" width="4" height="4"/>
          <rect class="cls-5" x="36" y="60" width="4" height="4"/>
          <rect class="cls-5" x="36" y="56" width="4" height="4"/>
          <rect class="cls-10" x="36" y="52" width="4" height="4"/>
          <rect class="cls-10" x="36" y="48" width="4" height="4"/>
          <rect class="cls-3" x="36" y="44" width="4" height="4"/>
          <rect class="cls-8" x="36" y="40" width="4" height="4"/>
          <rect class="cls-10" x="36" y="16" width="4" height="4"/>
          <rect class="cls-1" x="40" y="120" width="4" height="4"/>
          <rect class="cls-11" x="40" y="116" width="4" height="4"/>
          <rect class="cls-1" x="40" y="112" width="4" height="4"/>
          <rect class="cls-1" x="40" y="108" width="4" height="4"/>
          <rect class="cls-1" x="40" y="104" width="4" height="4"/>
          <rect class="cls-1" x="40" y="100" width="4" height="4"/>
          <rect class="cls-1" x="40" y="96" width="4" height="4"/>
          <rect class="cls-1" x="40" y="92" width="4" height="4"/>
          <rect class="cls-1" x="40" y="88" width="4" height="4"/>
          <rect class="cls-1" x="40" y="84" width="4" height="4"/>
          <rect class="cls-9" x="40" y="80" width="4" height="4"/>
          <rect class="cls-9" x="40" y="76" width="4" height="4"/>
          <rect class="cls-3" x="40" y="68" width="4" height="4"/>
          <rect class="cls-3" x="40" y="64" width="4" height="4"/>
          <rect class="cls-3" x="40" y="60" width="4" height="4"/>
          <rect class="cls-5" x="40" y="56" width="4" height="4"/>
          <rect class="cls-5" x="40" y="52" width="4" height="4"/>
          <rect class="cls-10" x="40" y="48" width="4" height="4"/>
          <rect class="cls-10" x="40" y="44" width="4" height="4"/>
          <rect class="cls-10" x="40" y="40" width="4" height="4"/>
          <rect class="cls-5" x="40" y="36" width="4" height="4"/>
          <rect class="cls-8" x="40" y="32" width="4" height="4"/>
          <rect class="cls-10" x="40" y="16" width="4" height="4"/>
          <rect class="cls-10" x="40" y="12" width="4" height="4"/>
          <rect class="cls-1" x="44" y="120" width="4" height="4"/>
          <rect class="cls-2" x="44" y="116" width="4" height="4"/>
          <rect class="cls-11" x="44" y="112" width="4" height="4"/>
          <rect class="cls-1" x="44" y="108" width="4" height="4"/>
          <rect class="cls-1" x="44" y="104" width="4" height="4"/>
          <rect class="cls-1" x="44" y="100" width="4" height="4"/>
          <rect class="cls-1" x="44" y="96" width="4" height="4"/>
          <rect class="cls-1" x="44" y="92" width="4" height="4"/>
          <rect class="cls-1" x="44" y="88" width="4" height="4"/>
          <rect class="cls-1" x="44" y="84" width="4" height="4"/>
          <rect class="cls-1" x="44" y="80" width="4" height="4"/>
          <rect class="cls-4" x="44" y="76" width="4" height="4"/>
          <rect class="cls-3" x="44" y="72" width="4" height="4"/>
          <rect class="cls-3" x="44" y="68" width="4" height="4"/>
          <rect class="cls-3" x="44" y="64" width="4" height="4"/>
          <rect class="cls-3" x="44" y="60" width="4" height="4"/>
          <rect class="cls-3" x="44" y="56" width="4" height="4"/>
          <rect class="cls-5" x="44" y="52" width="4" height="4"/>
          <rect class="cls-5" x="44" y="48" width="4" height="4"/>
          <rect class="cls-10" x="44" y="44" width="4" height="4"/>
          <rect class="cls-10" x="44" y="40" width="4" height="4"/>
          <rect class="cls-5" x="44" y="36" width="4" height="4"/>
          <rect class="cls-5" x="44" y="32" width="4" height="4"/>
          <rect class="cls-10" x="44" y="16" width="4" height="4"/>
          <rect class="cls-7" x="44" y="12" width="4" height="4"/>
          <rect class="cls-1" x="48" y="116" width="4" height="4"/>
          <rect class="cls-2" x="48" y="112" width="4" height="4"/>
          <rect class="cls-11" x="48" y="108" width="4" height="4"/>
          <rect class="cls-1" x="48" y="104" width="4" height="4"/>
          <rect class="cls-1" x="48" y="100" width="4" height="4"/>
          <rect class="cls-1" x="48" y="96" width="4" height="4"/>
          <rect class="cls-1" x="48" y="92" width="4" height="4"/>
          <rect class="cls-1" x="48" y="88" width="4" height="4"/>
          <rect class="cls-1" x="48" y="84" width="4" height="4"/>
          <rect class="cls-4" x="48" y="80" width="4" height="4"/>
          <rect class="cls-4" x="48" y="76" width="4" height="4"/>
          <rect class="cls-3" x="48" y="72" width="4" height="4"/>
          <rect class="cls-3" x="48" y="68" width="4" height="4"/>
          <rect class="cls-3" x="48" y="64" width="4" height="4"/>
          <rect class="cls-3" x="48" y="60" width="4" height="4"/>
          <rect class="cls-3" x="48" y="56" width="4" height="4"/>
          <rect class="cls-3" x="48" y="52" width="4" height="4"/>
          <rect class="cls-5" x="48" y="48" width="4" height="4"/>
          <rect class="cls-5" x="48" y="44" width="4" height="4"/>
          <rect class="cls-10" x="48" y="40" width="4" height="4"/>
          <rect class="cls-10" x="48" y="36" width="4" height="4"/>
          <rect class="cls-10" x="48" y="32" width="4" height="4"/>
          <rect class="cls-5" x="48" y="28" width="4" height="4"/>
          <rect class="cls-5" x="48" y="24" width="4" height="4"/>
          <rect class="cls-7" x="48" y="20" width="4" height="4"/>
          <rect class="cls-10" x="48" y="16" width="4" height="4"/>
          <rect class="cls-7" x="48" y="12" width="4" height="4"/>
          <rect class="cls-8" x="48" y="8" width="4" height="4"/>
          <rect class="cls-1" x="52" y="96" width="4" height="4"/>
          <rect class="cls-1" x="52" y="92" width="4" height="4"/>
          <rect class="cls-1" x="52" y="88" width="4" height="4"/>
          <rect class="cls-1" x="52" y="84" width="4" height="4"/>
          <rect class="cls-4" x="52" y="80" width="4" height="4"/>
          <rect class="cls-4" x="52" y="76" width="4" height="4"/>
          <rect class="cls-3" x="52" y="72" width="4" height="4"/>
          <rect class="cls-3" x="52" y="68" width="4" height="4"/>
          <rect class="cls-3" x="52" y="64" width="4" height="4"/>
          <rect class="cls-3" x="52" y="60" width="4" height="4"/>
          <rect class="cls-3" x="52" y="56" width="4" height="4"/>
          <rect class="cls-3" x="52" y="52" width="4" height="4"/>
          <rect class="cls-5" x="52" y="48" width="4" height="4"/>
          <rect class="cls-5" x="52" y="44" width="4" height="4"/>
          <rect class="cls-5" x="52" y="40" width="4" height="4"/>
          <rect class="cls-5" x="52" y="36" width="4" height="4"/>
          <rect class="cls-10" x="52" y="32" width="4" height="4"/>
          <rect class="cls-10" x="52" y="28" width="4" height="4"/>
          <rect class="cls-7" x="52" y="24" width="4" height="4"/>
          <rect class="cls-5" x="52" y="20" width="4" height="4"/>
          <rect class="cls-12" x="52" y="16" width="4" height="4"/>
          <rect class="cls-3" x="52" y="12" width="4" height="4"/>
          <rect class="cls-8" x="52" y="8" width="4" height="4"/>
          <rect class="cls-5" x="52" y="4" width="4" height="4"/>
          <rect class="cls-12" x="52" width="4" height="4"/>
          <rect class="cls-1" x="56" y="84" width="4" height="4"/>
          <rect class="cls-1" x="56" y="80" width="4" height="4"/>
          <rect class="cls-4" x="56" y="76" width="4" height="4"/>
          <rect class="cls-3" x="56" y="72" width="4" height="4"/>
          <rect class="cls-3" x="56" y="68" width="4" height="4"/>
          <rect class="cls-3" x="56" y="64" width="4" height="4"/>
          <rect class="cls-3" x="56" y="60" width="4" height="4"/>
          <rect class="cls-3" x="56" y="56" width="4" height="4"/>
          <rect class="cls-3" x="56" y="52" width="4" height="4"/>
          <rect class="cls-3" x="56" y="48" width="4" height="4"/>
          <rect class="cls-3" x="56" y="44" width="4" height="4"/>
          <rect class="cls-5" x="56" y="40" width="4" height="4"/>
          <rect class="cls-5" x="56" y="36" width="4" height="4"/>
          <rect class="cls-10" x="56" y="32" width="4" height="4"/>
          <rect class="cls-10" x="56" y="28" width="4" height="4"/>
          <rect class="cls-10" x="56" y="24" width="4" height="4"/>
          <rect class="cls-5" x="56" y="20" width="4" height="4"/>
          <rect class="cls-12" x="56" y="16" width="4" height="4"/>
          <rect class="cls-3" x="56" y="12" width="4" height="4"/>
          <rect class="cls-3" x="56" y="8" width="4" height="4"/>
          <rect class="cls-5" x="56" y="4" width="4" height="4"/>
          <rect class="cls-12" x="56" width="4" height="4"/>
          <rect class="cls-1" x="60" y="112" width="4" height="4"/>
          <rect class="cls-9" x="60" y="108" width="4" height="4"/>
          <rect class="cls-9" x="60" y="104" width="4" height="4"/>
          <rect class="cls-2" x="60" y="100" width="4" height="4"/>
          <rect class="cls-2" x="60" y="96" width="4" height="4"/>
          <rect class="cls-9" x="60" y="92" width="4" height="4"/>
          <rect class="cls-9" x="60" y="88" width="4" height="4"/>
          <rect class="cls-9" x="60" y="84" width="4" height="4"/>
          <rect class="cls-3" x="60" y="72" width="4" height="4"/>
          <rect class="cls-3" x="60" y="68" width="4" height="4"/>
          <rect class="cls-3" x="60" y="64" width="4" height="4"/>
          <rect class="cls-3" x="60" y="60" width="4" height="4"/>
          <rect class="cls-3" x="60" y="56" width="4" height="4"/>
          <rect class="cls-3" x="60" y="52" width="4" height="4"/>
          <rect class="cls-3" x="60" y="48" width="4" height="4"/>
          <rect class="cls-3" x="60" y="44" width="4" height="4"/>
          <rect class="cls-5" x="60" y="40" width="4" height="4"/>
          <rect class="cls-5" x="60" y="36" width="4" height="4"/>
          <rect class="cls-5" x="60" y="32" width="4" height="4"/>
          <rect class="cls-8" x="60" y="28" width="4" height="4"/>
          <rect class="cls-8" x="60" y="24" width="4" height="4"/>
          <rect class="cls-5" x="60" y="20" width="4" height="4"/>
          <rect class="cls-12" x="60" y="16" width="4" height="4"/>
          <rect class="cls-3" x="60" y="12" width="4" height="4"/>
          <rect class="cls-3" x="60" y="8" width="4" height="4"/>
          <rect class="cls-5" x="60" y="4" width="4" height="4"/>
          <rect class="cls-12" x="60" width="4" height="4"/>
          <rect class="cls-1" x="64" y="112" width="4" height="4"/>
          <rect class="cls-9" x="64" y="108" width="4" height="4"/>
          <rect class="cls-2" x="64" y="104" width="4" height="4"/>
          <rect class="cls-9" x="64" y="100" width="4" height="4"/>
          <rect class="cls-9" x="64" y="96" width="4" height="4"/>
          <rect class="cls-9" x="64" y="92" width="4" height="4"/>
          <rect class="cls-9" x="64" y="88" width="4" height="4"/>
          <rect class="cls-9" x="64" y="84" width="4" height="4"/>
          <rect class="cls-9" x="64" y="80" width="4" height="4"/>
          <rect class="cls-4" x="64" y="76" width="4" height="4"/>
          <rect class="cls-3" x="64" y="72" width="4" height="4"/>
          <rect class="cls-3" x="64" y="68" width="4" height="4"/>
          <rect class="cls-3" x="64" y="64" width="4" height="4"/>
          <rect class="cls-3" x="64" y="60" width="4" height="4"/>
          <rect class="cls-3" x="64" y="56" width="4" height="4"/>
          <rect class="cls-3" x="64" y="52" width="4" height="4"/>
          <rect class="cls-3" x="64" y="48" width="4" height="4"/>
          <rect class="cls-3" x="64" y="44" width="4" height="4"/>
          <rect class="cls-3" x="64" y="40" width="4" height="4"/>
          <rect class="cls-3" x="64" y="36" width="4" height="4"/>
          <rect class="cls-5" x="64" y="32" width="4" height="4"/>
          <rect class="cls-8" x="64" y="28" width="4" height="4"/>
          <rect class="cls-8" x="64" y="24" width="4" height="4"/>
          <rect class="cls-5" x="64" y="20" width="4" height="4"/>
          <rect class="cls-12" x="64" y="16" width="4" height="4"/>
          <rect class="cls-3" x="64" y="12" width="4" height="4"/>
          <rect class="cls-7" x="64" y="8" width="4" height="4"/>
          <rect class="cls-5" x="64" y="4" width="4" height="4"/>
          <rect class="cls-5" x="64" width="4" height="4"/>
          <rect class="cls-1" x="68" y="112" width="4" height="4"/>
          <rect class="cls-2" x="68" y="108" width="4" height="4"/>
          <rect class="cls-2" x="68" y="104" width="4" height="4"/>
          <rect class="cls-9" x="68" y="100" width="4" height="4"/>
          <rect class="cls-9" x="68" y="96" width="4" height="4"/>
          <rect class="cls-1" x="68" y="92" width="4" height="4"/>
          <rect class="cls-1" x="68" y="88" width="4" height="4"/>
          <rect class="cls-1" x="68" y="84" width="4" height="4"/>
          <rect class="cls-1" x="68" y="80" width="4" height="4"/>
          <rect class="cls-4" x="68" y="76" width="4" height="4"/>
          <rect class="cls-3" x="68" y="72" width="4" height="4"/>
          <rect class="cls-3" x="68" y="68" width="4" height="4"/>
          <rect class="cls-3" x="68" y="64" width="4" height="4"/>
          <rect class="cls-3" x="68" y="60" width="4" height="4"/>
          <rect class="cls-3" x="68" y="56" width="4" height="4"/>
          <rect class="cls-3" x="68" y="52" width="4" height="4"/>
          <rect class="cls-3" x="68" y="48" width="4" height="4"/>
          <rect class="cls-3" x="68" y="44" width="4" height="4"/>
          <rect class="cls-3" x="68" y="40" width="4" height="4"/>
          <rect class="cls-3" x="68" y="36" width="4" height="4"/>
          <rect class="cls-3" x="68" y="32" width="4" height="4"/>
          <rect class="cls-10" x="68" y="28" width="4" height="4"/>
          <rect class="cls-5" x="68" y="24" width="4" height="4"/>
          <rect class="cls-5" x="68" y="20" width="4" height="4"/>
          <rect class="cls-12" x="68" y="16" width="4" height="4"/>
          <rect class="cls-10" x="68" y="12" width="4" height="4"/>
          <rect class="cls-3" x="68" y="8" width="4" height="4"/>
          <rect class="cls-7" x="68" y="4" width="4" height="4"/>
          <rect class="cls-1" x="72" y="112" width="4" height="4"/>
          <rect class="cls-2" x="72" y="108" width="4" height="4"/>
          <rect class="cls-11" x="72" y="104" width="4" height="4"/>
          <rect class="cls-1" x="72" y="100" width="4" height="4"/>
          <rect class="cls-1" x="72" y="96" width="4" height="4"/>
          <rect class="cls-1" x="72" y="92" width="4" height="4"/>
          <rect class="cls-1" x="72" y="88" width="4" height="4"/>
          <rect class="cls-1" x="72" y="84" width="4" height="4"/>
          <rect class="cls-1" x="72" y="80" width="4" height="4"/>
          <rect class="cls-4" x="72" y="76" width="4" height="4"/>
          <rect class="cls-4" x="72" y="72" width="4" height="4"/>
          <rect class="cls-3" x="72" y="68" width="4" height="4"/>
          <rect class="cls-3" x="72" y="64" width="4" height="4"/>
          <rect class="cls-3" x="72" y="60" width="4" height="4"/>
          <rect class="cls-3" x="72" y="56" width="4" height="4"/>
          <rect class="cls-3" x="72" y="52" width="4" height="4"/>
          <rect class="cls-3" x="72" y="48" width="4" height="4"/>
          <rect class="cls-3" x="72" y="44" width="4" height="4"/>
          <rect class="cls-3" x="72" y="40" width="4" height="4"/>
          <rect class="cls-3" x="72" y="36" width="4" height="4"/>
          <rect class="cls-3" x="72" y="32" width="4" height="4"/>
          <rect class="cls-3" x="72" y="28" width="4" height="4"/>
          <rect class="cls-5" x="72" y="24" width="4" height="4"/>
          <rect class="cls-5" x="72" y="20" width="4" height="4"/>
          <rect class="cls-7" x="72" y="16" width="4" height="4"/>
          <rect class="cls-10" x="72" y="8" width="4" height="4"/>
          <rect class="cls-10" x="72" y="4" width="4" height="4"/>
          <rect class="cls-1" x="76" y="116" width="4" height="4"/>
          <rect class="cls-9" x="76" y="112" width="4" height="4"/>
          <rect class="cls-2" x="76" y="108" width="4" height="4"/>
          <rect class="cls-2" x="76" y="104" width="4" height="4"/>
          <rect class="cls-1" x="76" y="100" width="4" height="4"/>
          <rect class="cls-1" x="76" y="96" width="4" height="4"/>
          <rect class="cls-1" x="76" y="92" width="4" height="4"/>
          <rect class="cls-1" x="76" y="88" width="4" height="4"/>
          <rect class="cls-1" x="76" y="84" width="4" height="4"/>
          <rect class="cls-1" x="76" y="80" width="4" height="4"/>
          <rect class="cls-1" x="76" y="76" width="4" height="4"/>
          <rect class="cls-3" x="76" y="64" width="4" height="4"/>
          <rect class="cls-3" x="76" y="60" width="4" height="4"/>
          <rect class="cls-3" x="76" y="56" width="4" height="4"/>
          <rect class="cls-3" x="76" y="52" width="4" height="4"/>
          <rect class="cls-3" x="76" y="48" width="4" height="4"/>
          <rect class="cls-3" x="76" y="44" width="4" height="4"/>
          <rect class="cls-3" x="76" y="40" width="4" height="4"/>
          <rect class="cls-3" x="76" y="36" width="4" height="4"/>
          <rect class="cls-3" x="76" y="32" width="4" height="4"/>
          <rect class="cls-5" x="76" y="28" width="4" height="4"/>
          <rect class="cls-10" x="76" y="24" width="4" height="4"/>
          <rect class="cls-10" x="76" y="8" width="4" height="4"/>
          <rect class="cls-10" x="76" y="4" width="4" height="4"/>
          <rect class="cls-1" x="80" y="116" width="4" height="4"/>
          <rect class="cls-9" x="80" y="112" width="4" height="4"/>
          <rect class="cls-9" x="80" y="108" width="4" height="4"/>
          <rect class="cls-2" x="80" y="104" width="4" height="4"/>
          <rect class="cls-11" x="80" y="100" width="4" height="4"/>
          <rect class="cls-1" x="80" y="96" width="4" height="4"/>
          <rect class="cls-1" x="80" y="92" width="4" height="4"/>
          <rect class="cls-1" x="80" y="88" width="4" height="4"/>
          <rect class="cls-1" x="80" y="84" width="4" height="4"/>
          <rect class="cls-3" x="80" y="64" width="4" height="4"/>
          <rect class="cls-3" x="80" y="60" width="4" height="4"/>
          <rect class="cls-3" x="80" y="56" width="4" height="4"/>
          <rect class="cls-3" x="80" y="52" width="4" height="4"/>
          <rect class="cls-3" x="80" y="48" width="4" height="4"/>
          <rect class="cls-3" x="80" y="44" width="4" height="4"/>
          <rect class="cls-3" x="80" y="40" width="4" height="4"/>
          <rect class="cls-3" x="80" y="36" width="4" height="4"/>
          <rect class="cls-8" x="80" y="32" width="4" height="4"/>
          <rect class="cls-10" x="80" y="28" width="4" height="4"/>
          <rect class="cls-10" x="80" y="8" width="4" height="4"/>
          <rect class="cls-10" x="80" y="4" width="4" height="4"/>
          <rect class="cls-1" x="84" y="116" width="4" height="4"/>
          <rect class="cls-1" x="84" y="112" width="4" height="4"/>
          <rect class="cls-1" x="84" y="108" width="4" height="4"/>
          <rect class="cls-1" x="84" y="104" width="4" height="4"/>
          <rect class="cls-11" x="84" y="100" width="4" height="4"/>
          <rect class="cls-11" x="84" y="96" width="4" height="4"/>
          <rect class="cls-3" x="84" y="64" width="4" height="4"/>
          <rect class="cls-3" x="84" y="60" width="4" height="4"/>
          <rect class="cls-3" x="84" y="56" width="4" height="4"/>
          <rect class="cls-3" x="84" y="52" width="4" height="4"/>
          <rect class="cls-3" x="84" y="48" width="4" height="4"/>
          <rect class="cls-3" x="84" y="44" width="4" height="4"/>
          <rect class="cls-8" x="84" y="40" width="4" height="4"/>
          <rect class="cls-8" x="84" y="36" width="4" height="4"/>
          <rect class="cls-8" x="84" y="32" width="4" height="4"/>
          <rect class="cls-1" x="88" y="116" width="4" height="4"/>
          <rect class="cls-1" x="88" y="112" width="4" height="4"/>
          <rect class="cls-1" x="88" y="108" width="4" height="4"/>
          <rect class="cls-1" x="88" y="104" width="4" height="4"/>
          <rect class="cls-1" x="88" y="100" width="4" height="4"/>
          <rect class="cls-1" x="88" y="96" width="4" height="4"/>
          <rect class="cls-3" x="88" y="64" width="4" height="4"/>
          <rect class="cls-3" x="88" y="60" width="4" height="4"/>
          <rect class="cls-3" x="88" y="56" width="4" height="4"/>
          <rect class="cls-3" x="88" y="52" width="4" height="4"/>
          <rect class="cls-3" x="88" y="48" width="4" height="4"/>
          <rect class="cls-3" x="88" y="44" width="4" height="4"/>
          <rect class="cls-5" x="88" y="40" width="4" height="4"/>
          <rect class="cls-1" x="92" y="116" width="4" height="4"/>
          <rect class="cls-9" x="92" y="112" width="4" height="4"/>
          <rect class="cls-1" x="92" y="108" width="4" height="4"/>
          <rect class="cls-3" x="92" y="64" width="4" height="4"/>
          <rect class="cls-3" x="92" y="60" width="4" height="4"/>
          <rect class="cls-3" x="92" y="56" width="4" height="4"/>
          <rect class="cls-3" x="92" y="52" width="4" height="4"/>
          <rect class="cls-5" x="92" y="48" width="4" height="4"/>
          <rect class="cls-5" x="92" y="44" width="4" height="4"/>
          <rect class="cls-9" x="96" y="112" width="4" height="4"/>
          <rect class="cls-9" x="96" y="108" width="4" height="4"/>
          <rect class="cls-3" x="96" y="64" width="4" height="4"/>
          <rect class="cls-3" x="96" y="60" width="4" height="4"/>
          <rect class="cls-3" x="96" y="56" width="4" height="4"/>
          <rect class="cls-5" x="96" y="52" width="4" height="4"/>
          <rect class="cls-12" x="100" y="60" width="4" height="4"/>
          <rect class="cls-12" x="100" y="56" width="4" height="4"/>
        </g>
      </g>
    </g>
  </g>
</svg>